<?xml version="1.0" encoding="utf-8"?>
<COLLADA xmlns="http://www.collada.org/2005/11/COLLADASchema" version="1.4.1" xmlns:xsi="http://www.w3.org/2001/XMLSchema-instance">
  <asset>
    <contributor>
      <author>Blender User</author>
      <authoring_tool>Blender 4.5.1 LTS commit date:2025-07-29, commit time:05:31, hash:b0a72b245dcf</authoring_tool>
    </contributor>
    <created>2025-08-28T15:45:43</created>
    <modified>2025-08-28T15:45:43</modified>
    <unit name="meter" meter="1"/>
    <up_axis>Z_UP</up_axis>
  </asset>
  <library_effects>
    <effect id="Material_001-effect">
      <profile_COMMON>
        <newparam sid="rocks_3_texture-surface">
          <surface type="2D">
            <init_from>rocks_3_texture</init_from>
          </surface>
        </newparam>
        <newparam sid="rocks_3_texture-sampler">
          <sampler2D>
            <source>rocks_3_texture-surface</source>
          </sampler2D>
        </newparam>
        <technique sid="common">
          <lambert>
            <emission>
              <color sid="emission">0 0 0 1</color>
            </emission>
            <diffuse>
              <texture texture="rocks_3_texture-sampler" texcoord="UVMap"/>
            </diffuse>
            <index_of_refraction>
              <float sid="ior">1.5</float>
            </index_of_refraction>
          </lambert>
        </technique>
      </profile_COMMON>
    </effect>
  </library_effects>
  <library_images>
    <image id="rocks_3_texture" name="rocks_3_texture">
      <init_from>/home/ace-rv/environment_models/rocks_3/meshes/rocks_3_texture.png</init_from>
    </image>
  </library_images>
  <library_materials>
    <material id="Material_001-material" name="Material.001">
      <instance_effect url="#Material_001-effect"/>
    </material>
  </library_materials>
  <library_geometries>
    <geometry id="shape0-mesh" name="shape0">
      <mesh>
        <source id="shape0-mesh-positions">
          <float_array id="shape0-mesh-positions-array" count="342">-2.601935 -0.9362826 -0.9667966 -2.307085 -1.183372 -0.1719067 -2.269316 -1.773553 -1.248677 -2.374926 -0.2376227 -0.9667966 -2.474115 -0.9325423 -1.589618 -2.374916 -0.6238327 -0.3418965 -1.865625 -1.868762 -0.3154466 -2.007616 -0.1182823 -1.591701 -2.007616 -0.7431827 -1.977907 -1.884335 -2.000483 -0.3040366 -1.679416 -2.128062 -0.9005766 -1.613706 0.2442274 -1.248667 -1.780605 -0.4307327 0.04431343 -1.466735 -1.058222 0.2224333 -1.569436 -2.583233 0.6389134 -1.481656 -3.239802 -0.3040366 -1.481646 -1.446222 0.8044734 -1.481646 -2.554732 -1.412537 -1.657616 -3.871503 -1.067387 -1.407505 -4.135202 -0.2134165 -1.744676 0.07144737 -0.3439767 -1.649275 -1.632982 -1.904721 -1.194355 -0.06082248 -1.81554 -0.9488855 -1.491612 -1.944367 -1.275125 -3.423503 -0.5012667 -1.360095 -4.640502 -1.524627 -1.453125 -4.684102 -0.5769665 -1.015195 -3.190803 -1.473877 -1.364046 -3.828902 -1.713348 -0.8843455 -0.4747725 0.6389134 -0.8300953 -3.451503 0.8044634 -0.8300953 -2.343013 1.489553 -0.8300858 -1.657943 -2.097613 -1.179406 -0.8007426 -2.152147 -1.007046 0.1822476 -0.7899666 -0.5934057 -4.639003 -0.06119656 -0.6131153 -3.786902 0.1259033 -0.7728953 -5.136703 -0.7143366 -0.5493655 -3.265802 -1.728188 -0.3997455 -0.3377028 -1.323617 -0.4917855 -0.001232624 -0.3429666 -0.4274054 -1.103693 1.489543 -0.4274054 -2.897263 -2.097612 -0.4976654 -4.311402 -2.083096 -0.3293157 -5.104703 -1.317857 -0.02049541 -4.038503 -0.007136583 0.307374 -3.751002 -1.444257 0.1732845 -4.640502 -1.524627 0.2447147 -4.009603 -0.3550766 0.2241344 -3.886302 0.6389134 0.2241344 -3.108962 1.489543 0.2241344 -2.000483 1.804443 0.2241344 -0.2069125 0.8044634 0.2241344 -2.000483 -2.412503 0.2241344 -0.8919926 -2.097606 0.2241344 -0.1146025 -1.246977 0.1412343 -4.674602 -0.4234066 0.3604841 -4.583503 -0.9478567 0.8756743 -1.103693 1.489543 0.8473845 -4.003002 -0.3539667 0.8756847 0.004797458 -0.3040366 1.333244 -3.453703 0.7787232 0.8196745 -3.867203 -1.217197 0.9145641 -3.803502 0.4005234 1.078244 -2.994952 -2.015207 1.278364 -2.343013 1.489553 1.278364 -1.657943 -2.097612 1.278375 -0.5494623 -1.412537 1.332614 -0.4747725 0.6389134 1.413565 -2.968972 0.9742837 1.444164 -4.364002 -0.5157967 1.444175 -3.495703 -1.920789 1.701255 -2.422103 1.014223 1.746254 -1.703023 -1.669637 1.929955 -1.446222 0.8044734 1.929955 -0.7611528 -0.3040366 1.954555 -4.270502 0.2228634 1.954555 -3.661503 0.8892033 1.954555 -2.793193 1.135873 1.954555 -4.198202 -1.384137 2.251954 -1.176803 -0.3230968 2.055756 -1.337482 0.2422232 2.138755 -1.909943 -1.897652 2.464954 -2.090703 0.8892033 2.464954 -4.364002 -0.5157967 2.296454 -1.321282 -1.082527 1.993255 -2.788022 -2.167848 2.780354 -3.061522 0.8892033 2.780354 -3.929902 0.3525434 2.676354 -3.487602 -1.878782 2.822854 -1.598042 0.2228634 2.774554 -2.608462 -2.144108 2.721154 -1.380722 -1.971134 2.974854 -3.891803 -1.291627 3.290754 -2.359022 0.3525534 3.281354 -3.782103 -0.5404666 3.286254 -1.797413 -0.5578067 3.018455 -1.005292 -1.555967 3.221654 -1.219282 -0.7979367 3.553555 -3.175503 -0.02728652 3.444254 -2.632353 -0.03267669 3.237755 -3.645002 -2.05548 3.826756 -2.689682 -2.387617 3.409755 -2.010463 -2.110975 4.091854 -1.989212 -1.840165 3.763954 -1.620953 -1.309967 4.072954 -2.078742 -0.4441066 3.869055 -3.903902 -1.226297 4.030654 -3.512302 -2.045274 4.240654 -3.308602 -0.3923967 4.550454 -2.789522 -1.838248 4.452954 -2.106732 -1.226297 4.550454 -2.796872 -0.6143366 4.667455 -3.169903 -1.118537</float_array>
          <technique_common>
            <accessor source="#shape0-mesh-positions-array" count="114" stride="3">
              <param name="X" type="float"/>
              <param name="Y" type="float"/>
              <param name="Z" type="float"/>
            </accessor>
          </technique_common>
        </source>
        <source id="shape0-mesh-normals">
          <float_array id="shape0-mesh-normals-array" count="672">-0.8861007 -0.4188421 0.1984867 -0.938434 -0.008844256 0.3453456 -0.933766 0.3034011 -0.1898124 -0.9324264 -0.3053804 -0.1931934 -0.9341691 0.3035316 0.1876082 -0.7793391 -0.5605984 0.2799284 -0.8016967 0.4583204 -0.383699 -0.6776291 0.386622 -0.6255735 -0.5790916 -0.7975251 0.169135 -0.6836279 0.620826 0.3837029 -0.5087111 0.8562328 0.08988046 -0.57357 0.7980558 -0.1847285 -0.6127018 -0.4204815 -0.6691726 -0.5428361 -0.2836287 -0.790496 -0.5771018 0.5249884 0.6255723 -0.5755909 0.1730301 0.7992219 -0.2626711 -0.8622667 -0.433013 -0.2618126 0.5073897 -0.8209811 -0.2154872 0.7844551 -0.5815459 -0.4294772 0.04125672 0.9021349 -0.3405438 -0.397766 0.8519461 -0.2140332 -0.1653786 -0.9627252 -0.1610392 0.4059856 -0.8995788 -0.93376 0.1029424 -0.3427757 -0.9508197 0.1581295 0.2663402 -0.9479451 -0.06546586 -0.3116316 -0.9435216 -0.306569 0.1256287 -0.9435227 0.02474343 0.3303828 -0.9341718 -0.3035311 -0.1875954 -0.0374059 0.9825435 0.1822335 0.03473371 0.6097605 0.7918244 0.1631795 0.3440937 0.9246469 0.003680169 -0.2868796 -0.9579596 -0.9250686 0.3265305 0.1939742 -0.9629598 -0.08863532 0.2546612 -0.9031645 -0.1013951 -0.4171488 -0.9470283 -0.3028362 -0.1069008 -0.954098 -0.2562718 -0.1549896 -0.7487832 -0.5746026 0.3303869 -0.7487838 -0.03853464 0.6616933 -0.6284293 -0.4089511 0.6616916 0.04366385 -0.464384 -0.8845569 -0.7769404 0.5438081 -0.3172327 -0.7829707 -0.529156 -0.3270334 -0.5574745 -0.8120561 0.1725896 -0.7756169 0.5341947 0.3362361 -0.5831177 0.4713031 0.6617002 -0.5773411 0.1876007 0.7946592 -0.7589035 0.0557363 -0.6488135 -0.7748544 -0.5358906 -0.3352937 -0.494285 -0.2832165 -0.8218704 -0.5831739 -0.4706874 -0.6620889 -0.5773425 -0.1875909 -0.7946605 -0.564512 -0.8201519 -0.09315061 -0.8834371 0.3073599 0.3536507 -0.7373396 0.6745806 -0.03565812 -0.5031901 0.4028212 0.7645489 -0.4771636 -0.2012426 -0.8554626 0.05451279 0.9442306 0.3247413 0.2986854 0.9149469 -0.2714023 -0.7225483 0.6899278 0.04385948 -0.341542 -0.8912764 -0.2982876 -0.1781336 -0.7024796 -0.6890507 -0.4352921 -0.471706 0.7668209 -0.3395971 -0.7007979 0.6273406 -0.3547133 0.4922412 -0.794907 -0.3042691 -0.211006 0.9289224 -0.2263129 0.3030261 -0.92572 -0.6042428 -0.7739762 0.1893455 0.4674292 0.8372368 -0.2838036 -0.2679783 0.9053331 0.329484 -0.2680305 0.7002256 0.6616976 -0.3568199 -0.4911267 0.7946534 -0.3005794 -0.8896966 0.3436455 -0.3154066 -0.8900572 0.3291153 -0.1947214 -0.7240626 0.6616774 -0.3526004 0.4853111 -0.8000913 -0.3150898 0.1023892 0.9435227 -0.1947341 -0.2680384 0.9435222 -0.3150917 -0.1023805 -0.9435229 -0.1947357 0.2680343 -0.943523 0.5781217 0.3475245 -0.7382426 0.7191469 0.0311864 -0.694158 0.5024716 0.8311833 -0.2380266 -0.3872197 0.5728917 -0.7223961 0.1284984 -0.2098515 0.9692527 0.2315392 -0.8034035 0.5485732 0.380729 -0.4366171 0.8151141 0.379288 -0.8959107 0.2312678 0.2882801 -0.6323955 -0.7190068 -0.1781998 0.7263556 -0.6638165 -0.2805174 0.8995073 -0.3349576 -0.009522199 0.9832181 0.1821857 -8.14528e-4 0.9921479 -0.1250681 0 0.3313095 0.9435222 0 0.6070626 0.7946541 -0.1437296 -0.6764733 -0.7223059 0.00428009 -0.6054095 -0.7959027 0.02857154 -0.3495861 -0.9364686 0.567179 -0.8180966 0.09500563 0.6421172 -0.7548376 -0.1338122 0.4514163 0.3067398 -0.8379345 0.2669247 -0.9556967 0.1240772 0.7891414 -0.1830417 0.5863035 0.6321685 -0.02532571 -0.774417 0.01064056 -0.9923108 0.1233124 0.1988385 -0.7234525 0.66112 0.1951559 -0.9523407 0.2344384 0.2658109 -0.8364089 0.4793379 0.1947341 -0.2680384 0.9435222 0.3567369 -0.4910123 0.7947614 0.3150898 0.1023892 0.9435227 0.2680307 0.7002257 0.6616975 0.2680298 0.9049899 0.3303837 0.1947349 0.2680343 -0.9435232 0.3158909 -0.1053977 -0.9429233 0.1947415 0.724038 -0.6616984 0.3568184 0.49112 -0.7946584 0.3151022 0.8896942 -0.3303862 0.1557811 -0.6915115 -0.7053682 0.9480314 -0.1161482 -0.2962199 0.9183809 -0.179161 0.3528141 -0.1556293 -0.9765693 -0.1486338 0.9900376 0.1131389 0.08381783 0.0110808 -0.973036 -0.2303871 -0.5366982 -0.8359985 -0.1142868 -0.4451953 -0.8550924 0.2657414 0.5773256 0.1875957 0.7946717 0.5831024 0.4713184 0.6617028 0.5773382 0.7946603 -0.1876048 0.5831173 0.8026148 0.125634 -0.3093857 -0.8839348 -0.3506278 -0.3004065 -0.7071857 -0.6400347 -0.3111321 -0.500854 0.807677 -0.3354461 -0.8774556 0.3428522 -0.2113324 -0.7214817 0.6593958 -0.5003188 -0.4990293 -0.7075669 -0.1024326 -0.256093 -0.9612097 0.6602697 -0.1442543 -0.7370446 -0.3010391 0.3885933 -0.8708449 -0.2259398 0.3205056 -0.9199061 0.6883285 -0.3665913 0.6259512 0.6542018 -0.3914183 0.6471567 0.7441916 -0.03098893 0.6672471 0.6380949 0.4047849 -0.6549688 0.7409124 0.5887914 -0.3230689 0.7778463 0.5346014 0.3303886 -0.2690154 -0.3216797 0.9078287 -0.3133422 0.09583795 0.9447919 -0.1947323 -0.2680365 0.9435231 0 -0.9920838 0.1255776 0 -0.982255 -0.1875504 0.03134083 -0.5922783 -0.8051238 0.03419613 -0.352956 -0.9350149 0.9656435 -0.1876631 0.1797644 0.0156697 0.3211106 0.9469121 -0.1330231 0.6032173 0.7864056 0.5353938 0.3847306 -0.7518883 0.07752519 0.8010798 -0.5935159 0.8501102 0.4479617 0.276845 0.730382 0.5470659 0.4089757 0.6229708 0.7743562 -0.1108153 0.1947097 -0.7240259 0.6617211 0.3150871 -0.8897166 0.3303402 0.1947401 -0.2680363 0.9435216 0.3568111 -0.4911068 0.7946699 0.315097 0.1023689 0.9435225 0.2742767 -0.7213102 -0.6359906 0.2985033 -0.8897384 -0.3453425 -0.03996545 0.2999121 -0.9531294 0.2565275 0.7061944 0.6599115 0.3084354 0.8814764 0.357585 -0.6525428 0.6685995 -0.3565987 -0.545393 0.7776731 -0.3126837 -0.2356526 0.1255238 -0.9636968 0.5773563 0.1875718 0.7946551 0.583134 0.4713153 0.6616773 0.5736489 -0.79677 0.1899595 0.5741789 -0.8104819 -0.1159214 -0.04982626 0.9806195 -0.1894801 0.5283217 0.8433427 0.09823179 0.4190094 0.3878225 0.8209902 -0.1992873 0.9278169 0.3153415 -0.3510445 -0.2343854 -0.9065491 0.09723025 -0.2974985 -0.9497584 -0.07636523 0.1358453 -0.9877827 0.6813312 -0.3848077 0.6226645 0.7595875 -0.05692964 0.6479089 0.7375466 -0.597374 0.3149115 0.7794813 0.534852 0.3261016 -0.3614822 -0.8436393 -0.3969929 -0.2351597 -0.1866451 -0.9538677 -0.198233 0.2628819 -0.944244 0.3533996 0.5538428 -0.7539013 -0.02463769 -0.9877167 0.1543009 0.009360194 -0.9524605 -0.3045184 0.07345592 -0.3676065 -0.9270759 0.6256424 0.7783737 0.05202132 0.9424471 0.2866247 0.1721621 0.9508827 0.1937451 0.2414229 0.6330724 0.5482103 -0.5465207 0.1679658 0.8552858 -0.4901774 0.07225859 0.5407677 0.8380628 0.2327777 -0.6868951 0.6884691 0.3418157 -0.8302136 0.4403495 0.4825077 0.105726 0.8694875 0.4802064 0.1021089 0.8711922 0.2634251 0.888494 0.3757471 0.1562415 -0.9027358 -0.4008201 0.3028804 0.513064 -0.8031368 0.7647199 0.3181829 0.5603244 0.4645685 0.1003399 0.8798342 0.6400789 -0.7309737 0.236594 0.67732 -0.7067549 -0.2042921 0.5773503 -0.1875989 -0.7946529 0.5810313 0.7913229 -0.1902918 0.5410975 0.8077576 0.2339684 0.5978128 0.3408248 -0.7255745 0.841847 -0.3217009 0.4333616 0.8016039 0.4584218 -0.3837717 0.7997725 -0.4672036 -0.3769413 0.8098925 0.4490566 0.377389 0.9759718 0.2045244 0.07515859 0.9797252 0.1917966 -0.05790221</float_array>
          <technique_common>
            <accessor source="#shape0-mesh-normals-array" count="224" stride="3">
              <param name="X" type="float"/>
              <param name="Y" type="float"/>
              <param name="Z" type="float"/>
            </accessor>
          </technique_common>
        </source>
        <source id="shape0-mesh-map-0">
          <float_array id="shape0-mesh-map-0-array" count="1344">0.466613 0.8286722 0.4429052 0.7622702 0.5336005 0.8004037 0.466613 0.8286722 0.5336005 0.8004037 0.5240395 0.8481248 0.4196275 0.83491 0.466613 0.8286722 0.4779495 0.8859435 0.466613 0.8286722 0.4196275 0.83491 0.4429052 0.7622702 0.4779495 0.8859435 0.466613 0.8286722 0.5240395 0.8481248 0.4429052 0.7622702 0.5245949 0.7450619 0.5336005 0.8004037 0.4367945 0.9015105 0.4196275 0.83491 0.4779495 0.8859435 0.3513054 0.04966855 0.3493054 0.004953444 0.40463 0.05953294 0.3946045 0.7549213 0.3439566 0.7220648 0.3610345 0.6776173 0.4779495 0.8859435 0.5240395 0.8481248 0.5434066 0.9048047 0.6450001 0.4531317 0.6144487 0.5137158 0.5685842 0.4626511 0.6450001 0.4531317 0.6675967 0.4842489 0.6144487 0.5137158 0.2736864 0.05833655 0.2811573 0 0.3493054 0.004953444 0.3513054 0.04966855 0.2736864 0.05833655 0.3493054 0.004953444 0.5434066 0.9048047 0.5240395 0.8481248 0.568796 0.8597712 0.568796 0.8597712 0.5240395 0.8481248 0.5336005 0.8004037 0.3946045 0.7549213 0.3439566 0.8107811 0.3439566 0.7220648 0.3904964 0.1274424 0.3513054 0.04966855 0.40463 0.05953294 0.6877312 0.4173938 0.6675967 0.4842489 0.6450001 0.4531317 0.568796 0.8597712 0.5336005 0.8004037 0.5833738 0.8061794 0.5336005 0.8004037 0.5245949 0.7450619 0.5833738 0.8061794 0.3281465 0.1158356 0.2736864 0.05833655 0.3513054 0.04966855 0.3281465 0.1158356 0.3513054 0.04966855 0.3904964 0.1274424 0.5245949 0.7450619 0.4792804 0.7292531 0.5238584 0.7341338 0.5245949 0.7450619 0.5238584 0.7341338 0.6257268 0.7686412 0.4792804 0.7292531 0.4384264 0.6989609 0.5238584 0.7341338 0.5238584 0.7341338 0.5201843 0.6318768 0.5998325 0.6768085 0.5238584 0.7341338 0.5998325 0.6768085 0.6257268 0.7686412 0.5238584 0.7341338 0.4384264 0.6989609 0.5201843 0.6318768 0.6074886 0.4024211 0.6450001 0.4531317 0.5685842 0.4626511 0.5691679 0.3587209 0.5685842 0.4626511 0.5300192 0.4631085 0.9196853 0.9439398 0.8816813 0.8477346 0.9196853 0.8174772 0.2736864 0.05833655 0.3281465 0.1158356 0.2702302 0.1173819 0.5833738 0.8061794 0.5245949 0.7450619 0.6257268 0.7686412 0.4497041 0.5874679 0.4851595 0.5157163 0.520327 0.5572978 0.40463 0.5969887 0.4119614 0.5284091 0.4497041 0.5874679 0.4497041 0.5874679 0.4119614 0.5284091 0.4851595 0.5157163 0.40463 0.7796759 0.4384264 0.6989609 0.4792804 0.7292531 0.5201843 0.6318768 0.6197811 0.6031844 0.5998325 0.6768085 0.6257268 0.7686412 0.5998325 0.6768085 0.6850092 0.6877092 0.5998325 0.6768085 0.6197811 0.6031844 0.6850092 0.6877092 0.2702302 0.1173819 0.201238 0.04729837 0.2736864 0.05833655 0.4369542 0.6468579 0.40463 0.5969887 0.4497041 0.5874679 0.4384264 0.6989609 0.5069199 0.6185094 0.5201843 0.6318768 0.9200549 0 0.9227206 0.02265781 0.8121455 0 0.5833738 0.8061794 0.6257268 0.7686412 0.6340446 0.8496454 0.6340446 0.8496454 0.6257268 0.7686412 0.7051178 0.7893002 0.7051178 0.7893002 0.6257268 0.7686412 0.6850092 0.6877092 0.2531418 0.1246598 0.201238 0.04729837 0.2702302 0.1173819 0.4384264 0.6989609 0.4369542 0.6468579 0.5069199 0.6185094 0.201238 0.04729837 0.1225628 0.1089934 0.1404065 0.07125025 0.1460852 0.1300141 0.1225628 0.1089934 0.201238 0.04729837 0.2531418 0.1246598 0.1460852 0.1300141 0.201238 0.04729837 0.3249635 0.6776173 0.3461905 0.5914862 0.3889876 0.6322523 0.4497041 0.5874679 0.520327 0.5572978 0.5069199 0.6185094 0.5069199 0.6185094 0.4369542 0.6468579 0.4497041 0.5874679 0.5669193 0.581997 0.5069199 0.6185094 0.520327 0.5572978 0.09451794 0.03203368 0.03492444 0.09390544 0.03145134 0.01316177 0.6074886 0.4024211 0.5685842 0.4626511 0.5691679 0.3587209 0.6877312 0.4173938 0.6450001 0.4531317 0.6074886 0.4024211 0.5683577 0.8977811 0.5833738 0.8061794 0.6340446 0.8496454 0.3249635 0.6776173 0.2843884 0.5966173 0.3461905 0.5914862 0.3249635 0.6776173 0.2411747 0.6582925 0.2843884 0.5966173 0.520327 0.5572978 0.4851595 0.5157163 0.5442361 0.5137157 0.3889876 0.6322523 0.3461905 0.5914862 0.3736512 0.5520558 0.1225628 0.1089934 0.09451794 0.03203368 0.1404065 0.07125025 0.520327 0.5572978 0.5442361 0.5137157 0.5669193 0.581997 0.03492444 0.09390544 0.09451794 0.03203368 0.1225628 0.1089934 0.8121455 0 0.9227206 0.02265781 0.8460137 0.04319375 0.6448441 0.3501431 0.6877312 0.4173938 0.6074886 0.4024211 0.5691679 0.3587209 0.4820302 0.3884549 0.4735923 0.2979229 0.4735923 0.2979229 0.4820302 0.3884549 0.40463 0.3473133 0.6850092 0.6877092 0.6197811 0.6031844 0.6991728 0.6238442 0.8460137 0.04319375 0.8272244 0.09066748 0.8121455 0 0.8272244 0.09066748 0.7739071 0.08151084 0.8121455 0 0.8121455 0 0.7739071 0.08151084 0.7253714 0.04747802 0.2925794 0.2248719 0.2531418 0.1246598 0.2702302 0.1173819 0.7051178 0.7893002 0.6850092 0.6877092 0.734902 0.7119558 0.7725919 0.5597019 0.8508098 0.5438176 0.7842822 0.6119394 0.2013513 0.2039557 0.1460852 0.1300141 0.2531418 0.1246598 0.2013513 0.2039557 0.2531418 0.1246598 0.2925794 0.2248719 0.3281465 0.1158356 0.3904964 0.1274424 0.3565939 0.1800754 0.3281465 0.1158356 0.3565939 0.1800754 0.2702302 0.1173819 0.6448441 0.3501431 0.6074886 0.4024211 0.5691679 0.3587209 0.2925794 0.2248719 0.2702302 0.1173819 0.3565939 0.1800754 0.8781326 0.830375 0.8241762 0.8581312 0.80703 0.8174772 0.3461905 0.5914862 0.3113123 0.5253897 0.3736512 0.5520558 0.8781326 0.830375 0.8778867 0.8930163 0.8241762 0.8581312 0.2843884 0.5966173 0.3113123 0.5253897 0.3461905 0.5914862 0.2843884 0.5966173 0.2411747 0.6582925 0.2411747 0.5826009 0.2925794 0.2248719 0.3565939 0.1800754 0.3622789 0.2337253 0.6424251 0.2995288 0.6448441 0.3501431 0.5691679 0.3587209 0.5678703 0.2456533 0.5691679 0.3587209 0.4735923 0.2979229 0.6424251 0.2995288 0.5691679 0.3587209 0.5678703 0.2456533 0.7898238 0.7060816 0.7349019 0.6599871 0.7842822 0.6119394 0.4063462 0.239565 0.4735923 0.2979229 0.40463 0.3473133 0.06948488 0.8996722 0.03873068 0.918617 0.03873068 0.8268396 0.06888961 0.1640054 0.1460852 0.1300141 0.1081634 0.2467666 0.1460852 0.1300141 0.2013513 0.2039557 0.1081634 0.2467666 0.2843884 0.5966173 0.2662875 0.5409793 0.3113123 0.5253897 0.2411747 0.5826009 0.2662875 0.5409793 0.2843884 0.5966173 0.06888961 0.1640054 0.03492444 0.09390544 0.1225628 0.1089934 0.8272244 0.09066748 0.8411339 0.124198 0.7739071 0.08151084 0.8778867 0.8930163 0.8220015 0.8942741 0.8241762 0.8581312 0.03492444 0.09390544 0.06888961 0.1640054 0 0.1349777 0.8411339 0.124198 0.8162375 0.1672733 0.7739071 0.08151084 0.9327348 0.5137158 0.9525706 0.5790598 0.8508098 0.5438176 0.8162375 0.1672733 0.7633187 0.1409895 0.7739071 0.08151084 0.7633187 0.1409895 0.7244918 0.1558143 0.7739071 0.08151084 0.8508098 0.5438176 0.8614588 0.6342856 0.7842822 0.6119394 0.8508098 0.5438176 0.9525706 0.5790598 0.8614588 0.6342856 0.8614588 0.6342856 0.7898238 0.7060816 0.7842822 0.6119394 0.48495 0.2051401 0.4735923 0.2979229 0.4063462 0.239565 0.5678703 0.2456533 0.4735923 0.2979229 0.48495 0.2051401 0.2013513 0.2039557 0.2925794 0.2248719 0.2098951 0.2921609 0.2013513 0.2039557 0.2098951 0.2921609 0.1081634 0.2467666 0.2925794 0.2248719 0.3622789 0.2337253 0.3044848 0.3096597 0.2098951 0.2921609 0.2925794 0.2248719 0.3044848 0.3096597 0.6514516 0.2104697 0.6424251 0.2995288 0.5678703 0.2456533 0.9188389 0.1745675 0.9380431 0.2549061 0.8800202 0.2015318 0.8816814 0.9633967 0.8070301 0.9655307 0.8720309 0.9376433 0.8720309 0.9376433 0.8220015 0.8942741 0.8778867 0.8930163 0.9188389 0.1745675 0.8800202 0.2015318 0.8162375 0.1672733 0.8720309 0.9376433 0.8070301 0.9655307 0.8220015 0.8942741 0.8411339 0.124198 0.9188389 0.1745675 0.8162375 0.1672733 0.8800202 0.2015318 0.7977164 0.2160433 0.8162375 0.1672733 0.8162375 0.1672733 0.7977164 0.2160433 0.7633187 0.1409895 0.8614588 0.6342856 0.8877341 0.7388154 0.7898238 0.7060816 0.8877341 0.7388154 0.8289815 0.7897737 0.7898238 0.7060816 0.5588901 0.1549869 0.6514516 0.2104697 0.5678703 0.2456533 0.5588901 0.1549869 0.5678703 0.2456533 0.48495 0.2051401 0.8800202 0.2015318 0.8400478 0.2890609 0.7977164 0.2160433 0.8800202 0.2015318 0.9090322 0.2762221 0.8400478 0.2890609 0.02697867 0.8689942 0.0387308 0.9163433 0 0.8681516 0.7977164 0.2160433 0.7260541 0.2219274 0.7633187 0.1409895 0.7633187 0.1409895 0.7260541 0.2219274 0.6880348 0.1952679 0.1081634 0.2467666 0.06159609 0.2642031 0.05118095 0.20011 0.1045052 0.3253144 0.06159609 0.2642031 0.1081634 0.2467666 0.1081634 0.2467666 0.2098951 0.2921609 0.200592 0.3244107 0.1739748 0.3532503 0.1081634 0.2467666 0.200592 0.3244107 0.1045052 0.3253144 0.1081634 0.2467666 0.1739748 0.3532503 0.9525706 0.5790598 0.9236237 0.610067 0.8614588 0.6342856 0.9236237 0.610067 0.9093915 0.6570897 0.8614588 0.6342856 0.9093915 0.6570897 0.8877341 0.7388154 0.8614588 0.6342856 0.2098951 0.2921609 0.3044848 0.3096597 0.200592 0.3244107 0.5552446 0.1264778 0.6514516 0.2104697 0.5588901 0.1549869 0.9195985 0.8174771 0.8289815 0.7897737 0.8877341 0.7388154 0.03873074 0.8268395 0.02697867 0.8689942 0 0.8681516 0.09003388 0.8268396 0.09003388 0.8734387 0.06948488 0.8537389 0.03255188 0.5253897 0.09644383 0.5254992 0.02682012 0.5522547 0.7977164 0.2160433 0.7555177 0.2890611 0.7260541 0.2219274 0.7977164 0.2160433 0.8400478 0.2890609 0.7555177 0.2890611 0 0.2846955 0.06159609 0.2642031 0.03735005 0.361877 0.06159609 0.2642031 0.1045052 0.3253144 0.03735005 0.361877 0.9197283 0.7665892 0.8877341 0.7388154 0.9093915 0.6570897 0 0.6210879 0 0.5621873 0.02682012 0.5522547 0.80703 0.8603065 0.7443994 0.8977476 0.7600981 0.8174771 0.2250719 0.3709034 0.200592 0.3244107 0.3044848 0.3096597 0.6737973 0.1334057 0.6574547 0.1666721 0.6153856 0.1225784 0.9197283 0.7665892 0.9195985 0.8174771 0.8877341 0.7388154 0.9525706 0.8005454 0.9195985 0.8174771 0.9197283 0.7665892 0.6153856 0.1225784 0.6514516 0.2104697 0.5552446 0.1264778 0.1646104 0.5308394 0.155455 0.5807943 0.09644383 0.5254992 0.7555177 0.2890611 0.6877312 0.2762183 0.7260541 0.2219274 0.09644383 0.5254992 0.07446098 0.5933834 0.02682012 0.5522547 0.09644383 0.5254992 0.155455 0.5807943 0.07446098 0.5933834 0.07446098 0.5933834 0 0.6210879 0.02682012 0.5522547 0.8400478 0.2890609 0.8552596 0.3626243 0.7958018 0.3587512 0.8400478 0.2890609 0.7958018 0.3587512 0.7555177 0.2890611 0.1045052 0.3253144 0.1739748 0.3532503 0.1030098 0.3910229 0.8018448 0.9273251 0.7443994 0.8977476 0.80703 0.8603065 0.7349019 0.947779 0.7443994 0.8977476 0.8018448 0.9273251 0.6877311 0.08770346 0.6737973 0.1334057 0.6153856 0.1225784 0.6592896 0.064592 0.6877311 0.08770346 0.6153856 0.1225784 0.1739748 0.3532503 0.2035505 0.4115704 0.1030098 0.3910229 0.07446098 0.5933834 0.0590052 0.6763859 0 0.6210879 0.0590052 0.6763859 5.25421e-4 0.6934646 0 0.6210879 0.7555177 0.2890611 0.7319241 0.3495596 0.6877312 0.2762183 0.7958018 0.3587512 0.7319241 0.3495596 0.7555177 0.2890611 0.5947366 0.04637658 0.6153856 0.1225784 0.5552446 0.1264778 0.80703 1 0.7349019 0.947779 0.8018448 0.9273251 0.3896013 0.8946198 0.3439566 0.8835285 0.3828319 0.810781 0.6592896 0.064592 0.6153856 0.1225784 0.5947366 0.04637658 0.1030098 0.3910229 0.01168221 0.4047249 0.03735005 0.361877 0.1030098 0.3910229 0.03735005 0.361877 0.1045052 0.3253144 0.1030098 0.3910229 0.2035505 0.4115704 0.1379539 0.4540314 0.155455 0.5807943 0.1364577 0.6715234 0.07446098 0.5933834 0.1364577 0.6715234 0.0590052 0.6763859 0.07446098 0.5933834 0.1920462 0.6559501 0.1364577 0.6715234 0.155455 0.5807943 0.05580013 0.745745 5.25421e-4 0.6934646 0.0590052 0.6763859 0.8552596 0.3626243 0.8421927 0.4098587 0.7958018 0.3587512 0.07274127 0.4751156 0.01168221 0.4047249 0.1030098 0.3910229 0.07274127 0.4751156 0.1030098 0.3910229 0.1379539 0.4540314 0.1379539 0.4540314 0.2035505 0.4115704 0.2311526 0.439424 0.7958018 0.3587512 0.7540694 0.419968 0.7319241 0.3495596 0.7958018 0.3587512 0.8421927 0.4098587 0.7540694 0.419968 0.01168221 0.4047249 0.07274127 0.4751156 0.006090402 0.4704728 0.6318414 0 0.6592896 0.064592 0.5947366 0.04637658 0.09659117 0.6906267 0.05580013 0.745745 0.0590052 0.6763859 0.09659117 0.6906267 0.0590052 0.6763859 0.1364577 0.6715234 0.1379539 0.4540314 0.2311526 0.439424 0.1690164 0.4831451 0.3011131 0.8422819 0.2411747 0.8480725 0.2834949 0.797524 0.3302783 0.7307501 0.2630046 0.725417 0.2934239 0.6776173 0.1920462 0.6559501 0.176137 0.7175855 0.1364577 0.6715234 0.7540694 0.419968 0.6887133 0.412878 0.7319241 0.3495596 0.1364577 0.6715234 0.176137 0.7175855 0.09659117 0.6906267 0.176137 0.7175855 0.08929401 0.7667396 0.09659117 0.6906267 0.2834949 0.797524 0.2630046 0.725417 0.3302783 0.7307501 0.8421927 0.4098587 0.8106181 0.4663943 0.7540694 0.419968 0.07274127 0.4751156 0.1379539 0.4540314 0.1281174 0.5061754 0.3439566 0.9530087 0.3439566 0.8835285 0.3896013 0.8946198 0.176137 0.7175855 0.1567959 0.7667081 0.08929401 0.7667396 0.2411747 0.7132449 0.2050694 0.7804908 0.176137 0.7175855 0.8106181 0.4663943 0.7241135 0.4739378 0.7540694 0.419968 0.006090402 0.4704728 0.07274127 0.4751156 0.05492854 0.5253897 0.3439566 0.8005954 0.3011131 0.8422819 0.2834949 0.797524 0.3439566 0.8005954 0.2834949 0.797524 0.3302783 0.7307501 0.07274127 0.4751156 0.1281174 0.5061754 0.05492854 0.5253897 0.2050694 0.7804908 0.1567959 0.7667081 0.176137 0.7175855 0.3439566 0.8428795 0.3011131 0.8422819 0.3439566 0.8005954 0.8106181 0.4663943 0.78504 0.4962763 0.7241135 0.4739378 0.1308309 0.8226062 0.08929401 0.7667396 0.1567959 0.7667081 0.2050694 0.7804908 0.1308309 0.8226062 0.1567959 0.7667081 0.2042568 0.8268396 0.1308309 0.8226062 0.2050694 0.7804908</float_array>
          <technique_common>
            <accessor source="#shape0-mesh-map-0-array" count="672" stride="2">
              <param name="S" type="float"/>
              <param name="T" type="float"/>
            </accessor>
          </technique_common>
        </source>
        <vertices id="shape0-mesh-vertices">
          <input semantic="POSITION" source="#shape0-mesh-positions"/>
        </vertices>
        <triangles material="Material_001-material" count="224">
          <input semantic="VERTEX" source="#shape0-mesh-vertices" offset="0"/>
          <input semantic="NORMAL" source="#shape0-mesh-normals" offset="1"/>
          <input semantic="TEXCOORD" source="#shape0-mesh-map-0" offset="2" set="0"/>
          <p>0 0 0 2 0 1 1 0 2 0 1 3 1 1 4 5 1 5 4 2 6 0 2 7 3 2 8 0 3 9 4 3 10 2 3 11 3 4 12 0 4 13 5 4 14 2 5 15 6 5 16 1 5 17 7 6 18 4 6 19 3 6 20 8 7 21 4 7 22 7 7 23 2 8 24 10 8 25 6 8 26 3 9 27 5 9 28 20 9 29 11 10 30 3 10 31 20 10 32 11 11 33 7 11 34 3 11 35 21 12 36 2 12 37 4 12 38 8 13 39 21 13 40 4 13 41 20 14 42 5 14 43 12 14 44 12 15 45 5 15 46 1 15 47 2 16 48 21 16 49 10 16 50 22 17 51 8 17 52 7 17 53 22 18 54 7 18 55 11 18 56 12 19 57 1 19 58 13 19 59 1 20 60 6 20 61 13 20 62 33 21 63 21 21 64 8 21 65 33 22 66 8 22 67 22 22 68 6 23 69 10 23 70 9 23 71 6 24 72 9 24 73 16 24 74 10 25 75 17 25 76 9 25 77 9 26 78 15 26 79 14 26 80 9 27 81 14 27 82 16 27 83 9 28 84 17 28 85 15 28 86 34 29 87 11 29 88 20 29 89 40 30 90 20 30 91 12 30 92 40 31 93 12 31 94 13 31 95 21 32 96 33 32 97 23 32 98 13 33 99 6 33 100 16 33 101 18 34 102 26 34 103 19 34 104 28 35 105 25 35 106 18 35 107 18 36 108 25 36 109 26 36 110 21 37 111 17 37 112 10 37 113 15 38 114 30 38 115 14 38 116 16 39 117 14 39 118 31 39 119 14 40 120 30 40 121 31 40 122 23 41 123 17 41 124 21 41 125 27 42 126 28 42 127 18 42 128 17 43 129 24 43 130 15 43 131 15 44 132 24 44 133 30 44 134 13 45 135 16 45 136 29 45 137 29 46 138 16 46 139 41 46 140 41 47 141 16 47 142 31 47 143 32 48 144 17 48 145 23 48 146 17 49 147 27 49 148 24 49 149 17 50 150 38 50 151 27 50 152 42 51 153 38 51 154 17 51 155 32 52 156 42 52 157 17 52 158 25 53 159 37 53 160 26 53 161 18 54 162 19 54 163 24 54 164 24 55 165 27 55 166 18 55 167 36 56 168 24 56 169 19 56 170 28 57 171 43 57 172 25 57 173 34 58 174 20 58 175 40 58 176 22 59 177 11 59 178 34 59 179 40 60 180 13 60 181 29 60 182 25 61 183 44 61 184 37 61 185 25 62 186 43 62 187 44 62 188 19 63 189 26 63 190 35 63 191 26 64 192 37 64 193 35 64 194 38 65 195 28 65 196 27 65 197 19 66 198 35 66 199 36 66 200 43 67 201 28 67 202 38 67 203 30 68 204 24 68 205 36 68 206 39 69 207 22 69 208 34 69 209 40 70 210 29 70 211 52 70 212 52 71 213 29 71 214 41 71 215 31 72 216 30 72 217 50 72 218 36 73 219 45 73 220 30 73 221 45 74 222 49 74 223 30 74 224 30 75 225 49 75 226 50 75 227 54 76 228 32 76 229 23 76 230 41 77 231 31 77 232 51 77 233 31 78 234 50 78 235 51 78 236 53 79 237 42 79 238 32 79 239 53 80 240 32 80 241 54 80 242 33 81 243 22 81 244 39 81 245 33 82 246 39 82 247 23 82 248 39 83 249 34 83 250 40 83 251 54 84 252 23 84 253 39 84 254 35 85 255 45 85 256 36 85 257 37 86 258 56 86 259 35 86 260 35 87 261 56 87 262 45 87 263 44 88 264 56 88 265 37 88 266 44 89 267 43 89 268 47 89 269 54 90 270 39 90 271 55 90 272 55 91 273 39 91 274 40 91 275 60 92 276 40 92 277 52 92 278 55 93 279 40 93 280 60 93 281 58 94 282 41 94 283 51 94 284 58 95 285 52 95 286 41 95 287 38 96 288 42 96 289 46 96 290 46 97 291 42 97 292 64 97 293 42 98 294 53 98 295 64 98 296 44 99 297 57 99 298 56 99 299 47 100 300 57 100 301 44 100 302 46 101 303 43 101 304 38 101 305 45 102 306 48 102 307 49 102 308 56 103 309 48 103 310 45 103 311 43 104 312 46 104 313 47 104 314 48 105 315 59 105 316 49 105 317 49 106 318 61 106 319 50 106 320 59 107 321 63 107 322 49 107 323 63 108 324 61 108 325 49 108 326 50 109 327 65 109 328 51 109 329 50 110 330 61 110 331 65 110 332 65 111 333 58 111 334 51 111 335 68 112 336 52 112 337 58 112 338 60 113 339 52 113 340 68 113 341 53 114 342 54 114 343 66 114 344 53 115 345 66 115 346 64 115 347 54 116 348 55 116 349 67 116 350 66 117 351 54 117 352 67 117 353 67 118 354 55 118 355 60 118 356 46 119 357 64 119 358 62 119 359 47 120 360 46 120 361 57 120 362 57 121 363 48 121 364 56 121 365 46 122 366 62 122 367 59 122 368 57 123 369 46 123 370 48 123 371 48 124 372 46 124 373 59 124 374 62 125 375 70 125 376 59 125 377 59 126 378 70 126 379 63 126 380 65 127 381 74 127 382 58 127 383 74 128 384 68 128 385 58 128 386 75 129 387 67 129 388 60 129 389 75 130 390 60 130 391 68 130 392 62 131 393 79 131 394 70 131 395 62 132 396 71 132 397 79 132 398 61 133 399 63 133 400 77 133 401 70 134 402 76 134 403 63 134 404 63 135 405 76 135 406 77 135 407 64 136 408 71 136 409 62 136 410 86 137 411 71 137 412 64 137 413 64 138 414 66 138 415 73 138 416 82 139 417 64 139 418 73 139 419 86 140 420 64 140 421 82 140 422 61 141 423 69 141 424 65 141 425 69 142 426 72 142 427 65 142 428 72 143 429 74 143 430 65 143 431 66 144 432 67 144 433 73 144 434 80 145 435 67 145 436 75 145 437 75 146 438 68 146 439 74 146 440 69 147 441 61 147 442 77 147 443 72 148 444 69 148 445 78 148 446 69 149 447 77 149 448 78 149 449 70 150 450 84 150 451 76 150 452 70 151 453 79 151 454 84 151 455 79 152 456 71 152 457 89 152 458 71 153 459 86 153 460 89 153 461 81 154 462 74 154 463 72 154 464 83 155 465 72 155 466 78 155 467 83 156 468 81 156 469 72 156 470 85 157 471 73 157 472 67 157 473 82 158 474 73 158 475 85 158 476 81 159 477 75 159 478 74 159 479 80 160 480 75 160 481 81 160 482 85 161 483 67 161 484 80 161 485 76 162 486 88 162 487 77 162 488 84 163 489 88 163 490 76 163 491 77 164 492 87 164 493 78 164 494 77 165 495 88 165 496 87 165 497 87 166 498 83 166 499 78 166 500 79 167 501 89 167 502 93 167 503 79 168 504 93 168 505 84 168 506 86 169 507 82 169 508 91 169 509 90 170 510 81 170 511 83 170 512 80 171 513 81 171 514 90 171 515 92 172 516 82 172 517 85 172 518 97 173 519 92 173 520 85 173 521 82 174 522 92 174 523 91 174 524 87 175 525 94 175 526 83 175 527 94 176 528 90 176 529 83 176 530 84 177 531 95 177 532 88 177 533 93 178 534 95 178 535 84 178 536 98 179 537 85 179 538 80 179 539 96 180 540 80 180 541 90 180 542 96 181 543 98 181 544 80 181 545 97 182 546 85 182 547 98 182 548 91 183 549 101 183 550 89 183 551 91 184 552 89 184 553 86 184 554 91 185 555 92 185 556 103 185 557 88 186 558 99 186 559 87 186 560 99 187 561 94 187 562 87 187 563 95 188 564 99 188 565 88 188 566 96 189 567 90 189 568 94 189 569 89 190 570 101 190 571 93 190 572 102 191 573 101 191 574 91 191 575 102 192 576 91 192 577 103 192 578 103 193 579 92 193 580 97 193 581 93 194 582 107 194 583 95 194 584 93 195 585 101 195 586 107 195 587 101 196 588 102 196 589 108 196 590 105 197 591 97 197 592 98 197 593 100 198 594 96 198 595 94 198 596 100 199 597 94 199 598 99 199 599 103 200 600 97 200 601 105 200 602 104 201 603 103 201 604 105 201 605 106 202 606 96 202 607 100 202 608 95 203 609 109 203 610 99 203 611 107 204 612 109 204 613 95 204 614 99 205 615 109 205 616 100 205 617 109 206 618 106 206 619 100 206 620 105 207 621 96 207 622 106 207 623 101 208 624 108 208 625 107 208 626 102 209 627 103 209 628 104 209 629 105 210 630 98 210 631 96 210 632 109 211 633 112 211 634 106 211 635 107 212 636 113 212 637 109 212 638 108 213 639 113 213 640 107 213 641 108 214 642 102 214 643 110 214 644 111 215 645 104 215 646 105 215 647 111 216 648 105 216 649 106 216 650 102 217 651 104 217 652 110 217 653 113 218 654 112 218 655 109 218 656 110 219 657 104 219 658 111 219 659 108 220 660 110 220 661 113 220 662 111 221 663 106 221 664 112 221 665 113 222 666 111 222 667 112 222 668 110 223 669 111 223 670 113 223 671</p>
        </triangles>
      </mesh>
    </geometry>
  </library_geometries>
  <library_visual_scenes>
    <visual_scene id="Scene" name="Scene">
      <node id="node" name="node" type="NODE">
        <matrix sid="transform">0 -0.2079117 0.9781476 0 -0.9993908 0.03413685 0.007256014 0 -0.03489949 -0.9775518 -0.2077851 0 0 0 0 1</matrix>
        <instance_geometry url="#shape0-mesh" name="node">
          <bind_material>
            <technique_common>
              <instance_material symbol="Material_001-material" target="#Material_001-material">
                <bind_vertex_input semantic="UVMap" input_semantic="TEXCOORD" input_set="0"/>
              </instance_material>
            </technique_common>
          </bind_material>
        </instance_geometry>
      </node>
    </visual_scene>
  </library_visual_scenes>
  <scene>
    <instance_visual_scene url="#Scene"/>
  </scene>
</COLLADA>