<?xml version="1.0" encoding="utf-8"?>
<COLLADA xmlns="http://www.collada.org/2005/11/COLLADASchema" version="1.4.1" xmlns:xsi="http://www.w3.org/2001/XMLSchema-instance">
  <asset>
    <contributor>
      <author>Blender User</author>
      <authoring_tool>Blender 4.5.1 LTS commit date:2025-07-29, commit time:05:31, hash:b0a72b245dcf</authoring_tool>
    </contributor>
    <created>2025-08-28T15:31:05</created>
    <modified>2025-08-28T15:31:05</modified>
    <unit name="meter" meter="1"/>
    <up_axis>Z_UP</up_axis>
  </asset>
  <library_effects>
    <effect id="Material_002-effect">
      <profile_COMMON>
        <newparam sid="rocks_1_texture-surface">
          <surface type="2D">
            <init_from>rocks_1_texture</init_from>
          </surface>
        </newparam>
        <newparam sid="rocks_1_texture-sampler">
          <sampler2D>
            <source>rocks_1_texture-surface</source>
          </sampler2D>
        </newparam>
        <technique sid="common">
          <lambert>
            <emission>
              <color sid="emission">0 0 0 1</color>
            </emission>
            <diffuse>
              <texture texture="rocks_1_texture-sampler" texcoord="UVMap"/>
            </diffuse>
            <index_of_refraction>
              <float sid="ior">1.5</float>
            </index_of_refraction>
          </lambert>
        </technique>
      </profile_COMMON>
    </effect>
  </library_effects>
  <library_images>
    <image id="rocks_1_texture" name="rocks_1_texture">
      <init_from>rocks_1_texture.png</init_from>
    </image>
  </library_images>
  <library_materials>
    <material id="Material_002-material" name="Material.002">
      <instance_effect url="#Material_002-effect"/>
    </material>
  </library_materials>
  <library_geometries>
    <geometry id="shape0_001-mesh" name="shape0.001">
      <mesh>
        <source id="shape0_001-mesh-positions">
          <float_array id="shape0_001-mesh-positions-array" count="303">-1.91449 -0.319501 1.24562 -1.88665 0.301098 1.30848 -1.82672 0.225364 0.917375 -1.79684 -0.07063186 1.73778 -1.71953 -0.61748 1.46201 -1.2975 -0.003554105 0.318836 -1.29094 -1.15331 0.522372 -1.27616 0.785333 2.12832 -1.14837 -0.491341 2.16266 -1.13267 1.4203 1.42036 -1.10737 1.36363 0.862549 -1.07058 0.891507 0.383862 -1.05578 -1.6549 0.787104 -1.03862 0.348045 2.43758 -0.690913 0.166418 0.05127298 -0.683142 1.38337 2.00455 -0.636897 -1.86411 1.31203 -0.523969 0.532699 2.60223 -0.490317 -1.6019 0.318546 -0.446187 -1.59423 1.73068 -0.439592 -0.06227636 2.55099 -0.357864 -1.98634 0.63567 -0.325511 1.58321 0.491947 -0.259424 2.64261 0.931255 -0.144264 2.53279 1.55168 -0.130928 3.22132 0.957432 -0.126407 -0.90774 0.142931 -0.116644 1.88616 0.882488 -0.110909 1.21069 2.23278 -0.04269075 0.754429 0.03168296 -0.03459197 0.540337 2.56634 4.61996e-4 1.89557 1.42957 0.002574026 2.05545 0.951033 0.02180045 -1.79502 0.362049 0.08328795 3.08618 1.75825 0.26943 -0.05002975 -0.01854985 0.275385 -0.280584 2.38395 0.300262 -1.33858 1.99167 0.304963 2.77748 0.53655 0.311083 -1.55041 1.77372 0.31725 -1.28755 2.01461 0.364452 -1.65537 1.6656 0.375809 -1.21611 2.0544 0.378737 -1.27695 1.93191 0.379437 -1.66721 1.64805 0.399786 -1.66768 1.63556 0.431587 -1.66576 1.61795 0.431698 3.73566 0.956107 0.480511 -1.13676 2.10736 0.518216 2.25178 2.09158 0.550905 1.81132 0.951032 0.557459 1.81166 0.977292 0.602999 -1.57703 0.530165 0.61604 1.80283 0.929724 0.619337 1.87313 1.69412 0.631381 2.05614 0.659576 0.643657 1.8287 1.42351 0.644974 -1.77377 0.8714 0.654549 1.8243 1.42717 0.664168 1.82656 1.42332 0.664421 -1.02907 2.13806 0.702527 1.79221 0.900772 0.725928 -1.52571 1.54382 0.728712 3.00508 2.06316 0.741651 3.7897 1.49457 0.756011 -1.00014 2.10477 0.761305 0.69897 0.09122806 0.7711 1.77948 0.803817 0.77517 -0.193366 0.04922735 0.775287 1.78601 0.923615 0.778046 -1.013 2.08332 0.782198 1.7968 1.12137 0.784772 1.34191 0.321818 0.792709 1.8132 1.42211 0.810315 -1.46922 1.57659 0.811897 -1.06502 2.0285 0.81321 1.76779 0.948242 0.858205 -0.728487 2.22998 0.877745 -1.40998 1.64938 0.888833 -1.28447 1.79074 0.980746 3.79907 0.983539 1.0233 2.88075 0.507729 1.09046 -1.29422 1.64389 1.16778 2.56636 1.97953 1.27815 -0.752688 1.971 1.30462 3.50539 1.54817 1.30923 1.38311 1.62748 1.32328 1.93053 0.933398 1.38587 0.872158 1.87062 1.42168 -0.442086 0.380125 1.46362 1.4206 0.894767 1.49626 0.223442 1.92993 1.50232 3.34942 0.926618 1.54168 2.37821 1.5407 1.71175 0.692357 0.568224 1.71692 -0.583549 0.765197 1.73444 1.12152 1.22054 1.75518 2.61908 0.982931 1.78103 -0.681927 1.10193 1.95203 0.214523 1.47588 1.97638 0.252889 0.920574</float_array>
          <technique_common>
            <accessor source="#shape0_001-mesh-positions-array" count="101" stride="3">
              <param name="X" type="float"/>
              <param name="Y" type="float"/>
              <param name="Z" type="float"/>
            </accessor>
          </technique_common>
        </source>
        <source id="shape0_001-mesh-normals">
          <float_array id="shape0_001-mesh-normals-array" count="630">-0.9848178 0.06065362 -0.1626509 -0.9747506 0.02121227 0.2222864 -0.8370897 -0.1770008 -0.5176407 -0.8779524 -0.308668 0.3659561 -0.8396967 -0.542984 0.008822977 -0.8543901 -0.4907395 -0.1708577 -0.8283162 0.5125765 -0.2261809 -0.8411347 0.3092119 0.4437123 -0.8054684 0.5129543 0.296814 -0.8212535 0.5626975 -0.09441488 -0.7657307 -0.1163463 -0.6325505 -0.6859471 0.2241966 -0.6922517 -0.7440143 0.4462414 -0.4973043 -0.6705434 -0.407442 0.6199699 -0.7063844 0.1107143 0.6991162 -0.6153639 -0.1715241 0.7693548 -0.5718031 -0.5880949 0.5720015 -0.7013581 -0.6454769 0.3024178 -0.5578512 -0.5583397 0.6140512 -0.3590756 -0.164676 -0.9186657 -0.4380043 0.1751042 -0.8817543 -0.4235008 -0.5701115 -0.7040029 -0.3352007 -0.1778652 -0.9252051 -0.5071152 -0.6456683 -0.5709175 -0.5706532 0.6654489 0.4811786 -0.4015095 0.3733472 0.8363026 -0.3360052 0.4985636 0.7990838 -0.3435423 -0.251443 0.904851 -0.1940734 -0.4624272 0.865157 -0.461924 0.8800272 -0.1103562 -0.3665083 0.8672963 0.3368512 -0.3863821 0.9199107 0.06688439 -0.4728891 0.6088928 -0.6368874 -0.4201059 0.8119895 -0.4051964 -0.2783485 0.2762034 -0.9199097 -0.2477151 0.4043971 -0.8803979 -0.4315986 -0.90194 -0.01506066 -0.2632766 -0.1197766 0.957256 -0.1555525 -0.1648573 -0.9739741 -0.1027358 -0.1380482 -0.9850829 -0.06407386 0.03741103 -0.9972438 -0.1626365 0.5466794 0.8213958 -0.02768772 0.7625331 0.6463565 -0.01909697 -0.8363579 0.5478512 0.1141694 -0.9683184 0.2220922 -0.01912039 -0.8363196 0.5479089 0.0741015 -0.07513159 0.9944165 0.05832672 0.4500417 0.8911007 -0.1883578 -0.6627521 -0.7247628 -0.008471548 -0.2410769 -0.9704691 0.06162095 -0.4713608 0.8797851 -0.2024689 -0.3446291 0.9166445 0.001878082 -0.7170551 0.697014 -0.202448 -0.3446698 0.9166338 0.00187689 -0.7170498 0.6970195 0.1821843 -0.1472048 0.972183 0.2619183 -0.9229886 -0.2819415 0.114284 -0.9683269 0.2219963 0.114284 -0.9683268 0.2219963 0.114284 -0.9683269 0.2219962 0.161603 -0.9690935 0.1863932 0.038275 0.7795441 -0.625177 -0.03086268 0.4772049 -0.87825 0.05813777 0.7399747 -0.6701175 -0.9557642 0.2025702 0.2132605 -0.9100688 -0.4027956 0.09762424 -0.591548 0.1670256 -0.7887797 -0.5121367 -0.2561368 -0.8198231 -0.9181551 0.2689229 0.2909844 -0.6455463 -0.6668992 0.372177 -0.6379014 -0.02501595 0.7697117 -0.6316489 -0.6352083 0.4444436 -0.6450018 0.706306 0.2917267 -0.3792942 0.4127689 -0.8281049 0.3330788 -0.1732528 -0.9268452 0.06947576 -0.2154459 -0.9740412 0.17557 -0.3426363 -0.9229168 0.115559 0.9924205 -0.04180568 0.115575 0.9924092 -0.04203027 0.115575 0.9924092 -0.04203027 0.115575 0.9924092 -0.04203027 0.1155543 0.9924213 -0.04180127 0.3027601 0.4519824 0.8390758 0.08437943 0.7524122 0.6532656 0.08443635 0.7523886 0.6532855 0.08437496 0.752416 0.6532619 0.2363616 0.6350343 0.735435 0.07991629 0.09297859 -0.9924557 0.09247452 0.3331547 -0.9383264 0.3714561 -0.06550592 0.9261368 0.3074672 0.4460853 0.8405188 0.4060173 0.1514864 0.9012224 0.102697 0.9930343 -0.05776089 -0.3972526 -0.3260677 -0.8578289 -0.404143 -0.9077362 0.1126219 -0.30539 -0.6859218 -0.660491 -0.4041446 -0.9077214 0.1127345 -0.4041333 -0.9077287 0.1127154 0.4268408 -0.7597288 -0.4905296 -0.6392411 0.7094378 0.296764 -0.4072167 0.1477928 0.9012945 -0.2936947 0.5640847 0.7717201 0.1462386 0.04877781 -0.9880461 -0.2024143 -0.344631 0.9166558 -0.2024714 -0.344632 0.9166429 0.01858007 -0.3033233 0.9527066 0.01858186 -0.3033225 0.9527068 0.3158257 0.08614325 0.9448987 0.7378131 -0.4653735 0.4889371 0.737813 -0.4654027 0.4889094 -0.09531521 0.409828 -0.9071694 -0.01442354 -0.1744458 -0.9845612 0.4352303 -0.5290707 0.7284633 0.4352303 -0.5290707 0.7284634 0.4352303 -0.5290708 0.7284633 0.4351884 -0.5290763 0.7284843 0.6107036 -0.7032837 0.3639137 0.4352658 -0.5290337 0.728469 0.4352658 -0.5290338 0.728469 0.4352658 -0.5290338 0.728469 0.407456 -0.8139742 0.4140357 0.4353173 -0.5290343 0.7284378 0.4352065 -0.5290775 0.7284727 0.4075157 -0.8139656 0.4139942 0.4075602 -0.8139704 0.413941 0.2238321 -0.7171905 0.6599522 0.1617465 -0.9690614 0.1864351 0.4671505 -0.8463156 0.2559697 -0.1129513 0.9929965 -0.03464001 -0.008723914 0.4597099 -0.8880263 0.4108546 -0.6056187 0.6814869 0.1755832 -0.01192504 0.9843924 -0.3054712 -0.6858903 -0.6604861 0.1155368 0.9924218 -0.04183542 0.1155368 0.9924218 -0.04183542 0.1155368 0.9924218 -0.04183542 0.6691531 -0.6051986 -0.4312411 0.3184042 -0.3463346 -0.8824235 0.5848486 -0.5057159 -0.6341953 0.6669645 -0.671377 -0.3231276 -0.3053365 -0.685925 -0.6605125 0.1025777 0.9930423 -0.0578348 -0.404489 -0.9075772 0.1126599 0.3024806 -0.9297422 0.2099643 0.3027343 -0.9296532 0.2099927 0.4465153 -0.6191927 0.6459292 0.4908688 -0.7762079 0.3956629 0.181172 -0.6363788 -0.7497991 0.1811748 -0.6363766 -0.7498003 0.1812119 -0.6363585 -0.7498067 0.3009092 -0.3091423 -0.9021556 0.4671391 -0.8463205 0.2559742 0.4671773 -0.8463047 0.2559568 0.6861127 -0.7254384 0.05466818 0.08438074 0.7524712 0.6531977 0.08438074 0.7524712 0.6531977 0.08438074 0.7524712 0.6531977 0.1026678 0.9930384 -0.05774229 0.3027091 -0.9296699 0.2099548 0.4313412 -0.5064139 0.7466524 0.10274 0.9930321 -0.05772101 0.2238645 -0.717185 0.6599473 0.2238188 -0.7171917 0.6599556 0.2128975 0.571035 0.792839 0.468654 0.3114459 0.8266589 0.4239543 0.8799191 0.2144887 0.4313064 -0.5064083 0.7466763 0.4482812 0.04897606 -0.8925499 0.4307928 0.2906889 -0.8543521 0.4658205 0.8825336 -0.06438851 0.4286519 0.6749531 -0.6005797 0.4658082 0.8825407 -0.06437945 0.4639961 0.02816325 -0.8853895 -0.06525349 -0.7436534 0.6653733 0.4311351 -0.5064135 0.7467717 0.465813 0.8825362 -0.06440699 0.3027221 -0.9296553 0.2100015 0.4658022 0.8825391 -0.0644446 0.5280746 0.4907007 -0.6930729 0.5915359 0.7892103 0.1650233 -0.06494742 -0.7436702 0.6653845 -0.06491982 -0.7436743 0.6653826 0.467163 -0.8463013 0.2559937 0.4313029 -0.5063881 0.746692 0.465442 -0.5702177 0.6769163 0.4654496 -0.5702099 0.6769176 0.5198512 -0.08037447 0.8504673 0.3970602 -0.701554 0.5917477 0.2961771 0.4501891 -0.8423829 0.6539863 0.7562866 0.01823741 0.4695143 -0.2332482 -0.8515583 0.5732887 0.1361876 -0.8079562 0.7635061 -0.5065749 0.4005501 0.7842521 0.1609669 0.5991981 0.6988523 -0.1265342 0.7039849 0.8244293 -0.344558 0.4489946 0.9191245 0.3342951 0.2084634 0.888778 0.1841396 0.4197216 0.7780109 0.3612791 0.5139811 0.6300727 0.7573584 0.1715138 0.7509424 0.3395948 0.5663577 0.8406366 -0.5338608 0.09122949 0.6957758 0.1819247 0.6948378 0.7457952 -0.08105921 -0.6612253 0.7659929 -0.1203018 -0.6314922 0.8480774 0.4286379 -0.3115033 0.9050083 0.3402456 -0.2553296 0.9369957 -0.2442584 -0.2497541 0.9667478 0.2486956 0.05957406 0.9795573 -0.1990345 0.0292021</float_array>
          <technique_common>
            <accessor source="#shape0_001-mesh-normals-array" count="210" stride="3">
              <param name="X" type="float"/>
              <param name="Y" type="float"/>
              <param name="Z" type="float"/>
            </accessor>
          </technique_common>
        </source>
        <source id="shape0_001-mesh-map-0">
          <float_array id="shape0_001-mesh-map-0-array" count="1188">0.07227689 0.585956 0.08367389 0.6601051 0.0382902 0.6573716 0.1358193 0.6131579 0.08367389 0.6601051 0.07227689 0.585956 0.3266571 0.01727145 0.3673733 0.08003532 0.1950745 0.029082 0.1024153 0.5532888 0.1358193 0.6131579 0.07227689 0.585956 0.1024153 0.5532888 0.07227689 0.585956 0.03609675 0.4560327 0.03609675 0.4560327 0.07227689 0.585956 0 0.5124574 0.05849301 0.8141572 0.0382902 0.6573716 0.08367389 0.6601051 0.1358193 0.6131579 0.2020505 0.7253819 0.08367389 0.6601051 0.2020505 0.7253819 0.1247367 0.8136147 0.08367389 0.6601051 0.05849301 0.8141572 0.08367389 0.6601051 0.1247367 0.8136147 0.1950745 0.029082 0.3673733 0.08003532 0.2994974 0.1280813 0.2994974 0.1280813 0.3673733 0.08003532 0.3628429 0.2176005 0 0.7644739 0.0382902 0.6573716 0.05849301 0.8141572 0.2036156 0.5761078 0.1358193 0.6131579 0.1024153 0.5532888 0.2438595 0.676176 0.2020505 0.7253819 0.1358193 0.6131579 0.2036156 0.5761078 0.2438595 0.676176 0.1358193 0.6131579 0.4984318 0.4174729 0.5105239 0.5276221 0.411603 0.4776648 0.1101523 0.4366062 0.1024153 0.5532888 0.03609675 0.4560327 0.4984318 0.4174729 0.5710961 0.5023879 0.5105239 0.5276221 0.2634605 0.2035839 0.1950745 0.029082 0.2994974 0.1280813 0.2634605 0.2035839 0.2994974 0.1280813 0.3628429 0.2176005 0.1312922 0 0.1950745 0.029082 0.04255867 0.03906315 0.0868749 0.06942301 0.1950745 0.029082 0.2634605 0.2035839 0.0868749 0.06942301 0.04255867 0.03906315 0.1950745 0.029082 0.2020505 0.7253819 0.2076302 0.8149212 0.1247367 0.8136147 0.4812022 0.06072431 0.4982654 0.1146274 0.4253162 0.08329266 0.4253162 0.08329266 0.4982654 0.1146274 0.4116029 0.1859385 0.4812022 0.06072431 0.5596124 0 0.5636262 0.08070629 0.5636262 0.08070629 0.5596124 0 0.7254291 0 0.05849301 0.8141572 0.1247367 0.8136147 0.09257614 0.9041519 0.1247367 0.8136147 0.2076302 0.8149212 0.1614894 0.902093 0.1247367 0.8136147 0.1614894 0.902093 0.09257614 0.9041519 0.3628429 0.2176005 0.4116029 0.2359746 0.3650583 0.3342174 0.0382381 0.8667271 0.05849301 0.8141572 0.09257614 0.9041519 0.3628429 0.2176005 0.26351 0.3078371 0.2634605 0.2035839 0.3628429 0.2176005 0.3650583 0.3342174 0.26351 0.3078371 0.5710961 0.5023879 0.6221905 0.4690966 0.6536167 0.5414141 0.4812022 0.06072431 0.5636262 0.08070629 0.4982654 0.1146274 0.119249 0.1629192 0.0868749 0.06942301 0.2634605 0.2035839 0.119249 0.1629192 0.2634605 0.2035839 0.1639978 0.271868 0.1639978 0.271868 0.2634605 0.2035839 0.26351 0.3078371 0.4116029 0.1859385 0.4982654 0.1146274 0.4670749 0.2163963 0.4116029 0.1859385 0.4670749 0.2163963 0.4193934 0.3082344 0.5194858 0.6213256 0.5105239 0.5276221 0.5710961 0.5023879 0.5220127 0.6229375 0.5710961 0.5023879 0.6536167 0.5414141 0.5220127 0.6229375 0.5194858 0.6213256 0.5710961 0.5023879 0.5636262 0.08070629 0.5337488 0.1611229 0.4982654 0.1146274 0.4670749 0.2163963 0.4982654 0.1146274 0.5337488 0.1611229 0.02718025 0.09680652 0.04255867 0.03906315 0.0868749 0.06942301 0.119249 0.1629192 0.02718025 0.09680652 0.0868749 0.06942301 0.6396571 0.1363128 0.5636262 0.08070629 0.7254291 0 0.7469533 0.0808047 0.6396571 0.1363128 0.7254291 0 0.5023867 0.6170847 0.4677529 0.6198648 0.5105239 0.5276221 0.7510563 0.07641863 0.7469533 0.0808047 0.7254291 0 0.5194858 0.6213256 0.5023867 0.6170847 0.5105239 0.5276221 0.6396571 0.1363128 0.5337488 0.1611229 0.5636262 0.08070629 0.6153051 0.662527 0.6536167 0.5414141 0.6755231 0.5969335 0.5234303 0.6254993 0.5220127 0.6229375 0.6536167 0.5414141 0.6153051 0.662527 0.5234303 0.6254993 0.6536167 0.5414141 0.6892467 0.4442061 0.7435007 0.4192899 0.7636778 0.4863711 0.3650583 0.3342174 0.2503956 0.4169548 0.26351 0.3078371 0.6892467 0.4442061 0.7636778 0.4863711 0.7056432 0.5405654 0.2624537 0.5964455 0.244193 0.5257008 0.3186534 0.4994873 0.244193 0.5257008 0.2438595 0.4623035 0.3186534 0.4994873 0.8826835 0.1561929 0.96095 0.1804449 0.91161 0.2313609 0.8826835 0.1561929 0.9738413 0.1022309 0.96095 0.1804449 0.2624537 0.5964455 0.3186534 0.4994873 0.3608217 0.5649913 0.2438595 0.4623035 0.3476423 0.4366062 0.3186534 0.4994873 0.3608217 0.5649913 0.3186534 0.4994873 0.3982009 0.4685232 0.3186534 0.4994873 0.3476423 0.4366062 0.3982009 0.4685232 0.2903763 0.6709069 0.2624537 0.5964455 0.3608217 0.5649913 0.8826835 0.1561929 0.91161 0.2313609 0.8225809 0.2462739 0 0.1590025 0.02718025 0.09680652 0.119249 0.1629192 0.1095083 0.3018726 0.119249 0.1629192 0.1639978 0.271868 0.1095083 0.3018726 0 0.1590025 0.119249 0.1629192 0.7771611 0.467271 0.7435007 0.4192899 0.812314 0.4174729 0.7771611 0.467271 0.773827 0.467289 0.7435007 0.4192899 0.7636778 0.4863711 0.7435007 0.4192899 0.773827 0.467289 0.4670749 0.2163963 0.5337488 0.1611229 0.5624507 0.381994 0.4193934 0.3082344 0.4670749 0.2163963 0.4729994 0.3620945 0.4729994 0.3620945 0.4670749 0.2163963 0.4741744 0.3626195 0.4741744 0.3626195 0.4670749 0.2163963 0.4854222 0.3745754 0.4854222 0.3745754 0.4670749 0.2163963 0.5624507 0.381994 0.1639978 0.271868 0.26351 0.3078371 0.1923664 0.3710747 0.26351 0.3078371 0.2503956 0.4169548 0.1923664 0.3710747 0.6857363 0.3021505 0.5337488 0.1611229 0.6396571 0.1363128 0.5624507 0.381994 0.5337488 0.1611229 0.6147775 0.34198 0.6147775 0.34198 0.5337488 0.1611229 0.6857363 0.3021505 0.7771611 0.467271 0.812314 0.4174729 0.8330035 0.4642251 0.8826835 0.1561929 0.901506 0.05978655 0.9738413 0.1022309 0.3825973 0.6709069 0.3945894 0.7260829 0.3915723 0.7265364 0.9738413 0.1022309 0.901506 0.05978655 0.9354856 0.03998041 0.3825973 0.6709069 0.3915723 0.7265364 0.3397526 0.7317114 0.3825973 0.6709069 0.3397526 0.7317114 0.3066515 0.7271422 0.6153051 0.662527 0.6755231 0.5969335 0.6453652 0.669981 0.2903763 0.6709069 0.3608217 0.5649913 0.3646694 0.6709069 0.6755231 0.9280917 0.6908776 0.8147746 0.7341334 0.8997453 0.7781832 0.9959027 0.6755231 0.9280917 0.7341334 0.8997453 0.1639978 0.271868 0.1923664 0.3710747 0.1095083 0.3018726 0.7469533 0.0808047 0.7436378 0.08980834 0.6396571 0.1363128 0.7427245 0.1030735 0.6396571 0.1363128 0.7436378 0.08980834 0.7451264 0.1264961 0.6396571 0.1363128 0.7427245 0.1030735 0.7284172 0.1625537 0.6396571 0.1363128 0.7451264 0.1264961 0.6396571 0.1363128 0.7284172 0.1625537 0.6857363 0.3021505 0.4716333 0.6321727 0.4677529 0.6198648 0.5023867 0.6170847 0.4716333 0.6321727 0.4627596 0.6232949 0.4677529 0.6198648 0.8039805 0.1182282 0.8826835 0.1561929 0.8225809 0.2462739 0.8039805 0.1182282 0.901506 0.05978655 0.8826835 0.1561929 0.5194858 0.6213256 0.5234303 0.6254993 0.5023867 0.6170847 0.5234303 0.6254993 0.4716333 0.6321727 0.5023867 0.6170847 0.4716333 0.6321727 0.4548362 0.632044 0.4627596 0.6232949 0.5220127 0.6229375 0.5234303 0.6254993 0.5194858 0.6213256 0.4449701 0.6462628 0.4548362 0.632044 0.4716333 0.6321727 0.5253056 0.6295664 0.4716333 0.6321727 0.5234303 0.6254993 0.5268863 0.6701312 0.4716333 0.6321727 0.5253056 0.6295664 0.4716333 0.6321727 0.4362229 0.6711035 0.4449701 0.6462628 0.4385564 0.6833695 0.4362229 0.6711035 0.4716333 0.6321727 0.4385564 0.6833695 0.4716333 0.6321727 0.5268863 0.6701312 0.6153051 0.662527 0.5253056 0.6295664 0.5234303 0.6254993 0.5268863 0.6701312 0.5253056 0.6295664 0.6153051 0.662527 0.883072 0.8295446 0.8593304 0.8044815 0.9339417 0.8046392 0.8039805 0.1182282 0.8225809 0.2462739 0.7651536 0.2156517 0.2438595 0.7242961 0.3066515 0.7271422 0.2438595 0.8132351 0.6908776 0.8147746 0.7768453 0.8354884 0.7341334 0.8997453 0.9354856 0.03998041 0.901506 0.05978655 0.9288572 0.03470087 0.7636778 0.4863711 0.773827 0.467289 0.7734638 0.472509 0.6453652 0.669981 0.5370096 0.8304241 0.6153051 0.662527 0.1095083 0.3018726 0.03520321 0.3265632 0 0.1590025 0.03520321 0.3265632 0 0.3275546 0 0.1590025 0.6453652 0.669981 0.5711058 0.8317362 0.5370096 0.8304241 0.9288572 0.03470087 0.901506 0.05978655 0.9199908 0.02775806 0.7636778 0.4863711 0.7734638 0.472509 0.7729055 0.4793807 0.3397526 0.7317114 0.3395505 0.7327785 0.3066515 0.7271422 0.3395505 0.7327785 0.3399095 0.7340346 0.3066515 0.7271422 0.3399095 0.7340346 0.3927447 0.8210387 0.3066515 0.7271422 0.3066515 0.7271422 0.3033811 0.8555056 0.2438595 0.8132351 0.3927447 0.8210387 0.3033811 0.8555056 0.3066515 0.7271422 0.9199908 0.02775806 0.901506 0.05978655 0.9139963 0.02219355 0.9139963 0.02219355 0.901506 0.05978655 0.9122871 0.01774793 0.901506 0.05978655 0.8507963 0 0.9122871 0.01774793 0.901506 0.05978655 0.8039805 0.1182282 0.8507963 0 0.6153051 0.662527 0.520411 0.681484 0.5268863 0.6701312 0.504235 0.7193859 0.520411 0.681484 0.6153051 0.662527 0.504235 0.7193859 0.6153051 0.662527 0.5370096 0.8304241 0.4747096 0.3638113 0.4741744 0.3626195 0.4854222 0.3745754 0.8377985 0.4750596 0.801746 0.4805614 0.8336636 0.4657167 0.3761293 0.7504943 0.3927447 0.8210387 0.3399095 0.7340346 0.4385564 0.6833695 0.411603 0.7029564 0.4362229 0.6711035 0.7636778 0.4863711 0.7729055 0.4793807 0.7780392 0.4841798 0.441565 0.6858318 0.4385564 0.6833695 0.5268863 0.6701312 0.441565 0.6858318 0.5268863 0.6701312 0.520411 0.681484 0.8329784 0.9463298 0.7781832 0.9959027 0.7341334 0.8997453 0.7768453 0.8354884 0.8329784 0.9463298 0.7341334 0.8997453 0.883072 0.8295446 0.9339417 0.8046392 0.962813 0.8666793 0.441565 0.6858318 0.411603 0.7029564 0.4385564 0.6833695 0.1923664 0.3710747 0.1158632 0.4366062 0.1095083 0.3018726 0.7056432 0.5405654 0.7639846 0.662705 0.6755231 0.6105036 0.7780392 0.4841798 0.7821761 0.4880796 0.7636778 0.4863711 0.7636778 0.4863711 0.7966164 0.5656188 0.7056432 0.5405654 0.7821761 0.4880796 0.7966164 0.5656188 0.7636778 0.4863711 0.1095083 0.3018726 0.1158632 0.4366062 0.03520321 0.3265632 0.450169 0.688819 0.441565 0.6858318 0.520411 0.681484 0.450169 0.688819 0.411603 0.7029564 0.441565 0.6858318 0.8377985 0.4750596 0.7966164 0.5656188 0.801746 0.4805614 0.3973621 0.7552039 0.3927447 0.8210387 0.3761293 0.7504943 0.801746 0.4805614 0.7966164 0.5656188 0.7821761 0.4880796 0.7966164 0.5656188 0.7639846 0.662705 0.7056432 0.5405654 0.8377985 0.4750596 0.8781638 0.5493257 0.7966164 0.5656188 0.450169 0.688819 0.520411 0.681484 0.4873131 0.6938177 0.4873131 0.6938177 0.520411 0.681484 0.5092596 0.6903167 0.504235 0.7193859 0.5092596 0.6903167 0.520411 0.681484 0.4416652 0.7553294 0.411603 0.7029564 0.450169 0.688819 0.450169 0.688819 0.4873131 0.6938177 0.504235 0.7193859 0.4416652 0.7553294 0.450169 0.688819 0.504235 0.7193859 0.7284172 0.1625537 0.7651537 0.209149 0.6857363 0.3021505 0.504235 0.7193859 0.4873131 0.6938177 0.5092596 0.6903167 0.8981525 0.9091699 0.8329783 0.9401101 0.883072 0.8295446 0.8981525 0.9091699 0.883072 0.8295446 0.962813 0.8666793 0.8039805 0.1182282 0.7651536 0.04169833 0.8507963 0 0.9175594 0.9999999 0.8329783 0.9401101 0.8981525 0.9091699 0.4416652 0.7553294 0.504235 0.7193859 0.5370096 0.8304241 0.8329784 0.8044816 0.8329784 0.9463298 0.7768453 0.8354884 0.6857363 0.3021505 0.7651537 0.209149 0.7263772 0.3607773 0.4528155 0.8762338 0.4416652 0.7553294 0.5370096 0.8304241 0.9175594 0.9999999 0.8981525 0.9091699 0.962813 0.8666793 0.9175594 0.9999999 0.962813 0.8666793 0.9758986 0.9999999 0.6147775 0.34198 0.7263772 0.3607773 0.5624507 0.381994 0.7966164 0.5656188 0.8781638 0.5493257 0.8434037 0.6091381 0.5624507 0.381994 0.7263772 0.3607773 0.6250171 0.4174728 0.3927447 0.8210387 0.3570159 0.8962517 0.3033811 0.8555056 0.6147775 0.34198 0.6857363 0.3021505 0.7263772 0.3607773 0.7639846 0.662705 0.813278 0.7203007 0.7284138 0.7675911 0.7284138 0.7675911 0.813278 0.7203007 0.7835407 0.7950734 0.8434037 0.6091381 0.7639846 0.662705 0.7966164 0.5656188 0.7639846 0.662705 0.8434037 0.6091381 0.813278 0.7203007 0.813278 0.7203007 0.8253043 0.8044816 0.7835407 0.7950734 0.8781638 0.7147088 0.813278 0.7203007 0.8434037 0.6091381 0.8781638 0.7147088 0.8253043 0.8044816 0.813278 0.7203007</float_array>
          <technique_common>
            <accessor source="#shape0_001-mesh-map-0-array" count="594" stride="2">
              <param name="S" type="float"/>
              <param name="T" type="float"/>
            </accessor>
          </technique_common>
        </source>
        <vertices id="shape0_001-mesh-vertices">
          <input semantic="POSITION" source="#shape0_001-mesh-positions"/>
        </vertices>
        <triangles material="Material_002-material" count="198">
          <input semantic="VERTEX" source="#shape0_001-mesh-vertices" offset="0"/>
          <input semantic="NORMAL" source="#shape0_001-mesh-normals" offset="1"/>
          <input semantic="TEXCOORD" source="#shape0_001-mesh-map-0" offset="2" set="0"/>
          <p>0 0 0 1 0 1 2 0 2 3 1 3 1 1 4 0 1 5 0 2 6 2 2 7 6 2 8 4 3 9 3 3 10 0 3 11 4 4 12 0 4 13 12 4 14 12 5 15 0 5 16 6 5 17 10 6 18 2 6 19 1 6 20 3 7 21 7 7 22 1 7 23 7 8 24 9 8 25 1 8 26 10 9 27 1 9 28 9 9 29 6 10 30 2 10 31 5 10 32 5 11 33 2 11 34 11 11 35 11 12 36 2 12 37 10 12 38 8 13 39 3 13 40 4 13 41 13 14 42 7 14 43 3 14 44 8 15 45 13 15 46 3 15 47 4 16 48 19 16 49 8 16 50 16 17 51 4 17 52 12 17 53 4 18 54 16 18 55 19 18 56 14 19 57 6 19 58 5 19 59 14 20 60 5 20 61 11 20 62 12 21 63 6 21 64 21 21 65 18 22 66 6 22 67 14 22 68 18 23 69 21 23 70 6 23 71 7 24 72 15 24 73 9 24 74 13 25 75 17 25 76 7 25 77 7 26 78 17 26 79 15 26 80 13 27 81 8 27 82 20 27 83 20 28 84 8 28 85 19 28 86 10 29 87 9 29 88 27 29 89 9 30 90 15 30 91 31 30 92 9 31 93 31 31 94 27 31 95 11 32 96 10 32 97 22 32 98 22 33 99 10 33 100 27 33 101 11 34 102 29 34 103 14 34 104 11 35 105 22 35 106 29 35 107 16 36 108 12 36 109 21 36 110 13 37 111 20 37 112 17 37 113 26 38 114 18 38 115 14 38 116 26 39 117 14 39 118 35 39 119 35 40 120 14 40 121 29 40 122 15 41 123 17 41 124 28 41 125 15 42 126 28 42 127 31 42 128 41 43 129 19 43 130 16 43 131 44 44 132 16 44 133 21 44 134 44 45 135 41 45 136 16 45 137 20 46 138 30 46 139 17 46 140 28 47 141 17 47 142 30 47 143 33 48 144 21 48 145 18 48 146 26 49 147 33 49 148 18 49 149 36 50 150 20 50 151 19 50 152 40 51 153 36 51 154 19 51 155 39 52 156 37 52 157 19 52 158 37 53 159 40 53 160 19 53 161 41 54 162 39 54 163 19 54 164 36 55 165 30 55 166 20 55 167 57 56 168 21 56 169 33 56 170 45 57 171 44 58 172 21 59 173 57 60 174 45 60 175 21 60 176 22 61 177 27 61 178 67 61 179 22 62 180 72 62 181 29 62 182 22 63 183 67 63 184 72 63 185 25 64 186 23 64 187 24 64 188 23 65 189 32 65 190 24 65 191 38 66 192 23 66 193 25 66 194 38 67 195 32 67 196 23 67 197 25 68 198 24 68 199 34 68 200 32 69 201 54 69 202 24 69 203 34 70 204 24 70 205 49 70 206 24 71 207 54 71 208 49 71 209 47 72 210 25 72 211 34 72 212 38 73 213 25 73 214 47 73 215 52 74 216 33 74 217 26 74 218 68 75 219 26 75 220 35 75 221 68 76 222 52 76 223 26 76 224 51 77 225 27 77 226 31 77 227 51 78 228 50 79 229 27 80 230 67 81 231 27 81 232 50 81 233 28 82 234 30 82 235 86 82 236 31 83 237 28 83 238 56 83 239 56 84 240 28 84 241 58 84 242 58 85 243 28 85 244 73 85 245 73 86 246 28 86 247 86 86 248 35 87 249 29 87 250 66 87 251 29 88 252 72 88 253 66 88 254 91 89 255 30 89 256 36 89 257 86 90 258 30 90 259 88 90 260 88 91 261 30 91 262 91 91 263 51 92 264 31 92 265 56 92 266 38 93 267 55 93 268 32 93 269 32 94 270 50 94 271 51 94 272 32 95 273 55 95 274 50 95 275 32 96 276 51 96 277 56 96 278 32 97 279 56 97 280 54 97 281 57 98 282 33 98 283 52 98 284 47 99 285 34 99 286 64 99 287 34 100 288 49 100 289 63 100 290 64 101 291 34 101 292 63 101 293 35 102 294 66 102 295 68 102 296 40 103 297 42 103 298 36 103 299 48 104 300 36 104 301 42 104 302 60 105 303 36 105 304 48 105 305 77 106 306 36 106 307 60 106 308 36 107 309 77 107 310 91 107 311 43 108 312 37 108 313 39 108 314 43 109 315 40 109 316 37 109 317 81 110 318 38 110 319 47 110 320 81 111 321 55 111 322 38 111 323 41 112 324 45 113 325 39 114 326 45 115 327 43 115 328 39 115 329 43 116 330 42 116 331 40 116 332 44 117 333 45 118 334 41 119 335 48 120 336 42 120 337 43 120 338 46 121 339 43 121 340 45 121 341 62 122 342 43 122 343 46 122 344 43 123 345 60 123 346 48 123 347 65 124 348 60 124 349 43 124 350 65 125 351 43 125 352 62 125 353 57 126 354 46 126 355 45 126 356 62 127 357 46 127 358 57 127 359 80 128 360 47 128 361 64 128 362 81 129 363 47 129 364 80 129 365 49 130 366 54 130 367 83 130 368 49 131 369 83 131 370 63 131 371 50 132 372 55 132 373 53 132 374 67 133 375 50 134 376 53 135 377 52 136 378 98 136 379 57 136 380 68 137 381 89 137 382 52 137 383 89 138 384 95 138 385 52 138 386 52 139 387 95 139 388 98 139 389 53 140 390 55 140 391 61 140 392 67 141 393 53 141 394 61 141 395 56 142 396 58 142 397 54 142 398 58 143 399 59 143 400 54 143 401 59 144 402 87 144 403 54 144 404 54 145 405 93 145 406 83 145 407 87 146 408 93 146 409 54 146 410 61 147 411 55 147 412 69 147 413 69 148 414 55 148 415 76 148 416 55 149 417 87 149 418 76 149 419 55 150 420 81 150 421 87 150 422 57 151 423 74 151 424 62 151 425 82 152 426 74 152 427 57 152 428 82 153 429 57 153 430 98 153 431 59 154 432 58 155 433 73 156 434 73 157 435 71 157 436 59 157 437 71 158 438 87 158 439 59 158 440 65 159 441 77 159 442 60 159 443 67 160 444 61 160 445 69 160 446 70 161 447 65 161 448 62 161 449 70 162 450 62 162 451 74 162 452 85 163 453 64 163 454 63 163 455 83 164 456 85 164 457 63 164 458 80 165 459 64 165 460 85 165 461 70 166 462 77 166 463 65 166 464 66 167 465 94 167 466 68 167 467 72 168 468 94 168 469 66 168 470 69 169 471 76 169 472 67 169 473 67 170 474 90 170 475 72 170 476 76 171 477 90 171 478 67 171 479 68 172 480 94 172 481 89 172 482 75 173 483 70 173 484 74 173 485 75 174 486 77 174 487 70 174 488 73 175 489 90 175 490 71 175 491 76 176 492 87 176 493 71 176 494 71 177 495 90 177 496 76 177 497 90 178 498 94 178 499 72 178 500 73 179 501 86 179 502 90 179 503 75 180 504 74 180 505 79 180 506 79 181 507 74 181 508 78 181 509 82 182 510 78 182 511 74 182 512 84 183 513 77 183 514 75 183 515 75 184 516 79 184 517 82 184 518 84 185 519 75 185 520 82 185 521 77 186 522 84 186 523 91 186 524 82 187 525 79 187 526 78 187 527 92 188 528 81 188 529 80 188 530 92 189 531 80 189 532 85 189 533 81 190 534 97 190 535 87 190 536 97 191 537 81 191 538 92 191 539 84 192 540 82 192 541 98 192 542 93 193 543 85 193 544 83 193 545 91 194 546 84 194 547 99 194 548 99 195 549 84 195 550 98 195 551 97 196 552 92 196 553 85 196 554 97 197 555 85 197 556 93 197 557 88 198 558 99 198 559 86 198 560 90 199 561 86 199 562 96 199 563 86 200 564 99 200 565 96 200 566 87 201 567 97 201 568 93 201 569 88 202 570 91 202 571 99 202 572 94 203 573 100 203 574 89 203 575 89 204 576 100 204 577 95 204 578 96 205 579 94 205 580 90 205 581 94 206 582 96 206 583 100 206 584 100 207 585 98 207 586 95 207 587 99 208 588 100 208 589 96 208 590 99 209 591 98 209 592 100 209 593</p>
        </triangles>
      </mesh>
    </geometry>
  </library_geometries>
  <library_visual_scenes>
    <visual_scene id="Scene" name="Scene">
      <node id="node" name="node" type="NODE">
        <matrix sid="transform">0 0.9848077 0.1736482 0 -1 0 0 0 0 -0.1736482 0.9848077 0 0 0 0 1</matrix>
        <instance_geometry url="#shape0_001-mesh" name="node">
          <bind_material>
            <technique_common>
              <instance_material symbol="Material_002-material" target="#Material_002-material">
                <bind_vertex_input semantic="UVMap" input_semantic="TEXCOORD" input_set="0"/>
              </instance_material>
            </technique_common>
          </bind_material>
        </instance_geometry>
      </node>
    </visual_scene>
  </library_visual_scenes>
  <scene>
    <instance_visual_scene url="#Scene"/>
  </scene>
</COLLADA>