<?xml version="1.0" encoding="utf-8"?>
<COLLADA xmlns="http://www.collada.org/2005/11/COLLADASchema" version="1.4.1" xmlns:xsi="http://www.w3.org/2001/XMLSchema-instance">
  <asset>
    <contributor>
      <author>Blender User</author>
      <authoring_tool>Blender 4.5.1 LTS commit date:2025-07-29, commit time:05:31, hash:b0a72b245dcf</authoring_tool>
    </contributor>
    <created>2025-08-28T14:38:10</created>
    <modified>2025-08-28T14:38:10</modified>
    <unit name="meter" meter="1"/>
    <up_axis>Z_UP</up_axis>
  </asset>
  <library_effects>
    <effect id="Material_001-effect">
      <profile_COMMON>
        <newparam sid="rocks_2_texture-surface">
          <surface type="2D">
            <init_from>rocks_2_texture</init_from>
          </surface>
        </newparam>
        <newparam sid="rocks_2_texture-sampler">
          <sampler2D>
            <source>rocks_2_texture-surface</source>
          </sampler2D>
        </newparam>
        <technique sid="common">
          <lambert>
            <emission>
              <color sid="emission">0 0 0 1</color>
            </emission>
            <diffuse>
              <texture texture="rocks_2_texture-sampler" texcoord="UVMap"/>
            </diffuse>
            <index_of_refraction>
              <float sid="ior">1.5</float>
            </index_of_refraction>
          </lambert>
        </technique>
      </profile_COMMON>
    </effect>
  </library_effects>
  <library_images>
    <image id="rocks_2_texture" name="rocks_2_texture">
      <init_from>/home/ace-rv/environment_models/rocks_2/meshes/rocks_2_texture.png</init_from>
    </image>
  </library_images>
  <library_materials>
    <material id="Material_001-material" name="Material.001">
      <instance_effect url="#Material_001-effect"/>
    </material>
  </library_materials>
  <library_geometries>
    <geometry id="shape0-mesh" name="shape0">
      <mesh>
        <source id="shape0-mesh-positions">
          <float_array id="shape0-mesh-positions-array" count="606">-2.738643 0.9006004 1.148071 -2.480943 1.18157 1.764961 -2.437543 1.56035 1.148061 -2.063943 1.63618 0.5311707 -1.692242 -0.2754994 1.672831 -1.643043 0.1543006 2.146221 -1.579443 1.72241 0.4898208 -1.548943 -0.1267995 2.128851 -1.572044 1.84477 0.7884308 -1.459343 1.758861 1.764961 -1.799943 1.91842 1.140261 -0.8697437 -1.1487 0.4370508 -0.9403433 0.4785004 0.1454508 -0.8819431 1.33499 2.128851 -0.8422426 -0.7400999 0.4877409 -0.6462425 0.9509001 0.04015082 -0.5134434 2.11141 0.7620708 -0.4284433 1.42807 0.04015082 -0.3007435 -0.6532002 2.745371 -0.1267437 1.75668 0.7622708 0.05545669 -1.1223 2.111561 0.09025627 -1.927799 0.9186107 0.4679571 1.12632 0.2754608 0.5590559 -0.1992998 2.732731 0.700257 0.2448005 2.545351 0.6345564 -1.458099 1.196151 0.6880556 0.6891003 0.07857078 0.7019564 -1.362699 0.7773408 0.7382571 1.127871 0.2040308 0.7432562 -0.2897997 0.1618608 0.9985567 -1.5477 1.445411 1.036757 1.45333 0.9186107 1.199456 0.2075004 2.537261 1.424357 0.8385 0.5429307 1.442156 -0.9665995 0.1885007 1.477957 0.5193005 0.7694408 1.871657 -0.08200073 0.8568307 1.712557 -0.3740997 0.1885007 1.933657 -0.1117 0.7681009 1.860758 0.3417006 1.445411 2.153456 -1.1545 0.7424408 -2.601444 0.5585003 1.672831 -2.177443 0.6445007 2.146221 -2.551043 0.5686998 0.5311707 -2.247544 0.03159999 1.764961 -1.531844 -0.3607998 1.148071 -1.269344 0.2301006 0.1499108 -1.572843 0.7672005 -0.02532923 -1.572843 0.7672005 2.321461 -1.271643 1.52456 0.04015082 -0.9975437 -0.01449966 2.744821 -1.539843 -0.6068001 1.445411 -1.421744 -0.2357997 0.6542908 -0.6047434 0.8445006 2.745331 -1.133343 -0.8622999 0.7619709 -1.104143 1.10394 2.138641 -1.088144 -0.8130007 2.248841 -0.7525438 -0.4470997 0.1454408 -0.6240438 -1.6018 1.403911 -0.8270429 -1.2619 1.423461 -0.6514438 -1.631599 0.5057808 -0.4765438 -1.863001 0.9186107 -0.8977436 0.6829004 0.2645208 -0.8150438 1.78261 0.0401408 -0.564443 0.8062 0.2220607 -0.3526434 1.89873 1.141611 -0.03814351 -0.5410004 0.1333707 -0.1755432 1.56834 1.166811 -0.2094435 0.1449995 -0.08278918 0.293057 -1.706799 1.403911 -0.1484436 -1.5053 1.703841 -0.06834352 -1.28 1.763681 -0.1218437 1.490291 0.3825308 -0.061643 1.43653 2.248841 0.3902574 -0.6480999 0.3016309 0.666556 -0.9601994 2.537261 0.2648569 1.55109 0.3226909 0.6210562 -1.349199 0.4333009 0.3336569 0.7371006 2.745371 0.3822561 -0.9266996 0.1333707 0.3792558 1.52623 0.9182309 1.075257 -0.8772001 0.3535608 1.315356 -1.2862 0.8693007 0.5011565 -0.1662998 0.2407708 0.9838568 1.01183 1.637291 0.7693564 1.43727 0.5435609 1.195956 1.24281 1.294291 1.120856 0.7769003 0.2040308 1.159457 -0.8331995 0.3763508 1.373356 -1.2961 0.7681509 1.419356 1.1024 0.9186107 1.610657 -1.2646 0.4000808 1.685057 -1.071099 1.269841 1.691758 0.1875 2.078521 1.673556 -0.7143002 0.0912407 2.048056 -0.3060999 0.4000808 1.927256 -0.5668993 1.295771 2.009057 -0.6462002 0.1885007 2.177556 -0.9441996 0.4000808 2.285256 -0.6142998 0.7424408 2.244357 -0.5984001 0.4512109 -2.594444 0.1899003 1.148071 -2.089242 1.68089 1.672831 -2.060044 -0.3002997 1.148071 -2.134043 1.023291 0.1499208 -1.876343 1.304251 2.146221 -1.589043 -0.2957993 1.603741 -1.686344 -0.2244997 0.5311707 -1.522443 0.1835002 2.136371 -1.239242 2.00018 1.141611 -1.220944 1.96784 0.3158908 -1.155843 1.2218 2.146221 -1.165943 0.04710006 0.3799008 -1.429743 1.414801 0.1767308 -0.7794432 2.09348 0.3825308 -0.8969435 -1.4773 0.9186107 -0.5989431 -1.2532 1.606781 -0.7836431 2.05657 1.208241 0.1858564 -0.5543995 0.1454408 -0.1825432 -1.8033 0.4333009 -0.1871437 -1.8435 1.331431 -0.2094435 0.1449995 2.973601 -0.5032419 1.63148 1.486581 0.4249559 1.53529 1.445411 -0.4143432 -1.261499 1.703841 0.1440569 -1.0673 2.206671 0.2688566 -0.9131994 2.358371 -0.2182421 1.073831 0.2986008 0.3128572 -1.742001 0.5057808 -0.05964314 1.49286 0.7290508 0.1096559 1.1253 0.4221108 0.1454569 -1.4457 0.1333707 0.5730559 0.3057003 0.1440508 0.2862573 0.8725004 0.2040308 0.1821562 1.638741 0.5390009 0.6228567 1.361831 1.397821 0.7144572 1.1523 2.128851 0.6127573 -1.4303 2.019431 0.7693564 1.399051 1.360251 0.5768572 1.637341 0.6441809 0.5809561 1.487881 0.3311509 1.280457 -1.240299 2.120211 0.6875559 -1.005 0.4841908 1.357157 -0.5698996 2.537261 0.9033572 0.4771004 2.358371 0.7432562 -0.2897997 2.728951 0.9017569 0.2959004 0.2061208 0.937657 0.6721001 2.207041 1.388356 0.8312006 1.360241 1.171057 1.2157 0.4769708 1.813357 -0.07259941 2.120211 1.275656 0.8787003 1.444001 1.338156 0.3924999 0.4769708 1.362156 -0.5720997 0.1885007 1.607356 -1.2929 1.033661 1.918357 -1.154699 0.2949408 1.528056 0.5202999 0.9544407 1.803057 -1.3525 0.7424408 1.946156 -1.1965 1.084791 1.787758 -0.7663994 2.019431 1.739857 -0.1356 0.4512109 2.018557 -0.4356995 1.445411 2.216456 -0.6040993 1.084791 1.985056 -0.8563995 1.296381 1.945256 -0.4180994 1.231181 2.203455 -0.9560995 1.033661 2.067255 -0.2850008 1.033671 -2.527644 1.2029 0.6233107 -2.282242 -0.006199836 0.6233009 -1.989844 0.3126001 0.1499108 -1.502743 1.380071 0.1499108 -1.034543 2.17105 0.7620708 -1.195242 1.81256 1.328501 -1.198444 0.9588003 0.06392079 -0.8657431 1.33934 -0.08659923 -0.9983438 -0.9780007 0.9170708 -1.104543 1.70994 1.498421 -1.063143 0.3306999 0.2591108 -0.7995437 1.5104 1.668511 -0.5348438 -0.8217001 0.1333807 -0.3777431 1.87134 0.3158908 -0.728043 1.5076 1.550451 -0.5933431 -0.6417999 0.2785008 -0.4213432 -1.380799 0.1333707 -0.09334313 -1.0232 -0.004489183 -0.3648437 -1.213 2.128851 -0.1180433 0.9432001 0.1454408 0.1548563 1.429561 0.8323008 0.3179556 -1.459499 1.562931 0.5869566 -1.647099 0.9186107 0.3019567 -0.6252995 2.537401 0.7284571 0.1944999 0.3012009 1.007157 0.2084007 0.3534309 0.9262568 0.79 2.073811 1.279856 -1.143499 0.4512109 1.519356 0.5563002 2.019431 1.455157 -0.2130994 0.3705508 1.836056 -0.7883997 1.342901 1.689156 -1.1574 1.445411 2.240557 -0.3938999 0.7424408 1.948758 -0.4820004 1.266631 2.320557 -0.7882996 0.7424308</float_array>
          <technique_common>
            <accessor source="#shape0-mesh-positions-array" count="202" stride="3">
              <param name="X" type="float"/>
              <param name="Y" type="float"/>
              <param name="Z" type="float"/>
            </accessor>
          </technique_common>
        </source>
        <source id="shape0-mesh-normals">
          <float_array id="shape0-mesh-normals-array" count="1332">-0.9402084 0.08269298 -0.3304088 -0.6329478 -0.4019758 -0.6616591 -0.2758033 -0.6972169 0.6616806 -0.1630218 0.2884306 -0.943521 -0.1794716 0.6574812 -0.7317844 -0.03768777 -0.3291419 -0.9435282 0.2791013 -0.725176 0.629462 0.2791013 -0.725176 0.629462 -0.9628199 -0.2269317 0.1465606 -0.7311977 0.2781421 -0.622886 -0.5176445 0.8393353 -0.1660138 0.1277558 -0.747354 -0.652028 0.1277559 -0.747354 -0.652028 -0.2986908 0.5284794 -0.7946656 -0.3311015 -0.08233189 -0.9399965 0.5188111 -0.1497987 -0.8416623 -0.1866394 0.7264577 0.6613811 0.6920048 0.2602433 0.673352 -0.6937591 -0.7168876 0.0690692 0.1116892 0.9758774 0.1875869 0.2757835 0.6972072 -0.6616991 0.3454432 0.6628413 0.6643121 -0.03763788 -0.3291658 -0.9435217 -0.4143048 -0.8480108 0.3304987 0.06899368 0.6031264 0.7946562 -0.3032657 0.5366027 -0.7874562 -0.07394933 -0.9898251 0.1215645 0.8092992 0.4857324 -0.3303014 0.211827 -0.9183316 0.3343597 0.211827 -0.9183316 0.3343597 0.211827 -0.9183316 0.3343597 0.2233937 0.2442336 -0.9436341 -0.08600932 0.7295473 -0.6785007 0.9525874 0.2151973 0.2150987 -0.8790017 -0.4211018 -0.2236722 -0.3239589 -0.06403613 -0.9439015 -0.1629589 0.2884337 -0.9435308 0.09460663 0.9347127 -0.3425812 0.5588766 0.7401967 -0.3738529 -0.3295001 -0.04329526 -0.9431624 -0.1468307 -0.3376891 0.9297349 -0.1499553 -0.9796821 -0.1331785 -0.03877866 -0.3297568 -0.9432691 0.5957521 -0.2473337 -0.7641372 0.1823289 0.3324543 0.9253273 0.1630114 -0.2884348 0.9435214 0.2510855 0.2286687 -0.9405673 0.2928876 -0.1485008 -0.9445446 0.3459184 0.6651078 0.6617947 0.4131292 0.8484352 -0.3308807 0.1488786 -0.79976 -0.5815662 0.3458449 0.665213 0.6617273 0.5654507 0.7541697 0.333907 0.565451 0.7541695 0.3339066 0.5654501 0.7541699 0.3339074 0.5938911 0.682848 0.4254552 0.593891 0.682848 0.4254551 0.5938911 0.682848 0.4254551 0.6639505 0.7238666 -0.187582 0.6708886 0.3348149 -0.6616703 -0.927177 -0.3714942 -0.04832327 -0.927177 -0.3714942 -0.04832327 -0.9271769 -0.3714942 -0.04832327 0.5949199 0.1206841 0.7946734 0.6329353 0.401897 0.6617189 -0.1629824 0.2884302 -0.9435279 0.04793161 -0.3972505 -0.9164577 0.2239853 0.2440693 -0.9435364 0.8935701 -0.4078369 -0.1876206 0.4175634 0.8506152 -0.3195225 0.6785838 -0.6560099 0.3304166 0.9345796 -0.1320169 -0.3303524 0.9345795 -0.1320169 -0.3303524 0.9345796 -0.1320169 -0.3303524 0.9402117 -0.08271688 0.3303937 0.9722506 0.1972584 -0.12577 -0.9025301 0.411899 -0.1256128 -0.8935925 0.4078243 0.1875414 -0.6706068 -0.7310734 -0.1257708 -0.6639689 -0.7238372 0.18763 -0.7395305 0.1234229 -0.6617111 -0.6786168 0.6560121 -0.3303443 -0.7120774 0.6195486 0.3303108 -0.5522553 0.2520411 0.7946631 -0.5257436 0.5345241 0.6617233 -0.4848051 0.8659492 0.1228663 -0.3692829 -0.8685899 -0.3304267 -0.4142083 -0.8480972 0.3303978 -0.2239343 -0.2441259 0.9435338 -0.1102972 0.7422656 -0.6609662 -0.1117753 -0.9758619 -0.1876167 -0.1128832 -0.9855338 0.1264144 0.03766798 0.3291593 0.9435228 0.06901913 0.6031284 0.7946524 0.1122909 0.9757299 0.1879947 0.06603509 -0.9707079 -0.23101 0.2537052 -0.7475413 -0.6138532 -0.9952749 0.08380872 0.04903155 -0.3139269 0.7517795 0.5798944 -0.7485488 0.04789835 0.6613476 -0.6709149 -0.3348408 0.6616305 -0.673233 -0.7282353 -0.1281825 -0.5120436 0.8522058 0.1075024 0.3471634 0.6653555 0.6608932 0.4332118 0.8682582 0.2417752 0.3745391 0.8625236 0.3402551 -0.6310653 -0.4042917 -0.662046 -0.6289822 0.4697561 0.6194439 -0.6289821 0.4697561 0.6194438 -0.2118718 0.9197587 -0.3303852 -0.1111379 0.7415007 -0.6616836 -0.04530638 -0.3329359 -0.9418604 -0.5959838 -0.1220047 -0.7936739 -0.4104388 -0.4470899 0.7947645 -0.4142552 -0.848139 0.3302316 0.09248042 0.5874283 0.8039748 -0.5925439 -0.1202154 -0.7965175 0.6391198 0.6736584 0.3710934 -0.3016847 0.1373928 0.9434562 -0.2244707 -0.2440766 0.9434191 -0.04264283 -0.6175199 -0.7853986 -0.2985591 0.5282921 -0.7948396 -0.3034607 -0.8712483 -0.3857955 -0.8038768 -0.4987421 0.3240966 -0.8382762 -0.4271779 -0.3388395 -0.6640244 -0.7237614 0.1877261 0.3013908 -0.1375666 -0.9435248 -0.6458635 -0.38574 -0.6588361 0.4103124 0.4473939 -0.7946588 -0.5697592 -0.3821194 0.7275708 -0.5697592 -0.3821194 0.7275708 -0.5697593 -0.3821195 0.7275708 0.4142028 0.8481148 -0.3303596 -0.06867086 -0.6005676 -0.7966197 -0.345872 -0.6652256 -0.6617005 0.5462103 -0.5183923 -0.6579694 -0.4353809 -0.4291849 0.7913557 -0.3125227 0.6120338 -0.72646 0.6763975 0.4092783 0.6123543 -0.1630097 0.2884132 -0.9435284 0.1094468 0.9763768 0.1863057 -0.1115658 -0.9758821 -0.1876357 0.6709027 0.3348435 -0.6616414 -0.06906163 -0.6031422 -0.7946384 0.1111009 -0.7414805 0.6617125 0.8256596 0.466753 0.3169037 0.1662275 -0.2886184 0.9429039 0.1111592 -0.7414503 0.6617364 0.3017067 -0.1373469 -0.9434559 0.2119864 -0.9197746 0.3302676 0.1866627 -0.7261811 -0.6616783 0.2917695 -0.5379335 0.7908844 0.9667562 -0.1890859 -0.1721313 0.2696905 0.6873751 -0.6743757 0.4704604 0.6831371 -0.5585614 0.3459244 0.6652311 0.6616675 0.3692008 0.8686414 0.330383 0.4088448 0.8519935 -0.3270368 -0.0258463 -0.8719271 -0.4889531 -0.02584636 -0.8719272 -0.4889531 -0.02584636 -0.8719271 -0.4889531 -0.9903602 0.1383639 0.00649929 -0.410117 -0.4492233 0.7937269 0.5246098 -0.2244868 -0.8212127 -0.3355044 0.469941 -0.8164511 -0.2346417 0.4153106 -0.8788973 0.6329723 0.4019451 0.6616542 0.632936 0.4021003 0.6615946 0.7477486 0.3273976 -0.5776529 0.7483357 -0.04675114 -0.6616706 -0.4967675 0.7119272 0.4963685 0.6708236 0.7309303 0.1254458 0.1749173 -0.2165048 -0.9604841 0.8612831 -0.457793 -0.2204927 0.2118369 -0.919732 0.330482 0.9608936 -0.1513606 -0.2318913 0.2986943 -0.5285134 0.7946417 0.2239748 0.2441589 -0.9435157 0.3020139 -0.1416658 -0.9427186 -0.172542 0.267478 -0.9479899 0.1897045 -0.7243868 -0.662779 0.03976452 0.327415 0.9440436 0.05745166 0.5950257 0.8016507 0.7276129 -0.1234667 -0.6747856 0.1635875 0.2773866 -0.9467291 0.3198604 -0.1256886 -0.9390909 0.05225753 0.6000601 0.7982464 0.3692162 0.8686619 0.3303122 0.3721622 0.8680114 0.3287123 0.7483361 -0.04677915 -0.6616683 -0.8447008 0.3994712 -0.3562353 -0.5879091 -0.1192209 -0.8000933 -0.630849 -0.4045118 -0.6621177 0.4255966 -0.8866337 0.180965 -0.3687784 -0.875351 -0.3126713 -0.3458239 -0.6653083 -0.6616425 0.5777759 -0.4777708 0.6617478 0.678528 -0.6560983 0.3303555 0.932757 -0.1305834 -0.3360243 0.7394932 -0.1234098 0.6617551 0.9638845 0.1913926 0.1851912 0.833616 0.4426729 0.3303409 0.1115667 -0.7424515 0.6605442 0.2118034 -0.9197126 0.3305574 0.1901459 0.9633502 -0.1892116 0.1901459 0.9633502 -0.1892116 0.1901459 0.9633502 -0.1892116 0.315838 -0.2480362 -0.9158191 0.8825359 -0.4135341 -0.2238749 0.9025223 -0.4119318 0.1255617 0.9402124 -0.08268332 0.3304 0.4763532 -0.8429983 -0.2498829 0.962618 0.1953946 0.1875837 0.3250458 0.06688535 0.94333 0.5386623 -0.2635859 -0.8002284 0.6241858 0.7598232 0.181827 0.2056914 0.7479476 0.6310827 0.5951548 0.1219031 0.7943113 0.7482938 -0.04671126 -0.6617209 0.8092644 0.4856703 -0.3304777 0.8335509 0.4426867 0.3304865 0.8936108 -0.4077686 -0.1875761 -0.7482948 0.04687547 0.6617081 -0.962621 -0.1953135 -0.187653 -0.8092366 -0.4857614 0.330412 -0.6708394 -0.3348806 0.6616868 -0.8335511 -0.4426955 -0.3304746 -0.482742 0.8555223 -0.1871946 -0.3459848 -0.6651943 -0.661673 -0.3013912 0.1375504 0.9435271 -0.5778614 0.4777145 -0.6617137 -0.1866669 0.7261607 0.6616995 -0.2157673 0.9182745 -0.3319889 -0.1932796 0.9095508 -0.3679135 0.2304115 -0.7374908 0.634837 -0.9082117 -0.310131 -0.2810165 -0.8093013 -0.4856991 0.3303453 -0.7718032 -0.2517902 0.5838848 0.3136977 0.07708173 0.9463891 0.3136977 0.07708173 0.9463891 0.3136977 0.07708173 0.9463891 -0.6311833 0.7230782 -0.2806522 -0.622971 0.4633114 -0.6302775 -0.8341555 -0.4409346 -0.3313024 -0.6618071 -0.7263189 0.1856669 0.3673062 0.8698632 0.3292786 -0.4065099 0.1853559 0.8946468 -0.6296195 -0.1666803 -0.7588129 -0.6042775 -0.1113302 -0.7889578 -0.1630226 0.2884192 -0.9435243 0.2969805 -0.140352 -0.9445126 -0.2757848 -0.6971874 0.6617193 0.4224454 -0.1847574 -0.8873583 -0.9623849 -0.1960265 -0.1881198 -0.2961802 0.5261088 -0.7971745 -0.1630192 0.2884472 -0.9435164 -0.6706888 -0.7310253 -0.1256127 -0.5262672 0.5341425 0.6616151 -0.4455975 0.8834019 0.1450651 0.2239367 0.2441604 -0.9435243 0.3691886 0.8686592 0.3303499 0.5522552 -0.2520709 -0.7946538 -0.2758764 -0.6971204 0.6617518 0.1111795 -0.7414234 0.6617632 0.03763276 0.3291682 0.9435212 -0.1866765 0.7261621 0.6616952 -0.110238 -0.985969 0.1253504 -0.5989691 -0.1215803 -0.7914888 -0.1635906 0.9288666 0.3323327 0.09845936 0.9906247 -0.09470224 0.1633555 -0.92963 -0.3303077 0.7479417 -0.039595 -0.6625824 -0.03769093 -0.3291696 -0.9435184 -0.4103057 -0.4474982 0.7946034 0.664055 0.723797 -0.1874805 0.2117187 -0.9162765 0.3400187 -0.4103533 -0.4470773 0.7948158 0.3023617 -0.3436424 0.8890935 0.9492418 0.2631325 -0.1723405 0.4687966 0.5097847 -0.7213525 0.2239653 0.2441148 -0.9435294 0.4218623 0.4598161 -0.7814099 -0.4162653 -0.8498694 0.3231801 -0.2761366 -0.6974799 0.6612643 -0.2761366 -0.6974799 0.6612643 0.4832755 -0.8551598 0.1874744 0.488107 -0.8637093 -0.1255308 -0.8778411 0.2207247 -0.4250596 -0.3774524 -0.07787561 -0.9227486 -0.4951266 0.7284799 0.4734627 0.3013994 -0.1375166 -0.9435293 0.5462546 -0.247206 -0.8003094 0.6790513 -0.4441867 0.584455 0.6786713 -0.6559727 0.3303105 0.609034 0.1360517 0.7813882 0.1886749 0.8871654 -0.4211168 -0.1051399 -0.9857976 0.1309531 -0.1344268 0.9144408 0.3817426 0.1081796 0.9766647 0.1855353 0.9366517 -0.3426369 0.07268869 0.1111462 -0.7415375 0.661641 0.5845684 0.7351188 -0.343337 -0.05084532 -0.634272 -0.7714363 -0.07871705 -0.9691808 -0.2334358 0.6900953 0.3436586 0.6369202 0.1654574 -0.9291034 -0.3307427 0.4882441 -0.8639031 -0.1236492 0.5947231 0.1198883 0.7949411 0.8384881 0.4416971 0.3191261 0.6416587 0.7548449 0.1359546 0.4103623 0.4473431 -0.7946616 0.3246664 0.06586116 0.9435328 0.5500089 -0.2539899 -0.7956001 0.07011228 0.603856 0.7940039 0.632788 0.4018377 0.6618956 0.4832797 -0.8551186 0.1876514 0.6706032 0.7311195 0.1255217 0.8092892 0.4856829 -0.3303987 -0.5397754 -0.8096074 -0.2306047 -0.5397754 -0.8096074 -0.2306047 -0.5397754 -0.8096074 -0.2306047 0.6329182 0.4019573 0.6616985 0.4276358 0.4220536 -0.7993738 -0.1381123 -0.9752959 -0.1724033 -0.1381123 -0.975296 -0.1724033 -0.05852961 -0.9962709 0.06339317 -0.05852961 -0.9962709 0.06339317 -0.05852961 -0.9962709 0.06339317 0.7123776 -0.6230944 -0.3229113 0.9781918 0.1758624 -0.1105144 0.1508829 -0.7589601 0.6334145 -0.3247593 -0.06585735 -0.9435011 -0.2772846 0.4907107 -0.8260245 0.8336614 0.4426056 0.3303167 0.6668811 0.3402915 -0.6629264 -0.05850178 -0.5997118 -0.7980749 -0.8749992 0.4234496 0.2346636 0.6606621 0.7280758 -0.1828422 0.8105028 0.4823865 -0.3322477 0.2064797 -0.9134899 -0.3505745 0.2759411 0.6972091 -0.6616313 0.1462089 -0.3200087 0.9360649 0.3076539 -0.5277526 0.7917237 0.9724404 0.1973884 -0.1240876 0.9289165 -0.1654721 -0.3312601 0.9289165 -0.1654721 -0.3312601 0.9289165 -0.1654721 -0.3312601 0.9070404 -0.3225885 -0.270582 0.595139 0.1204975 0.7945377 0.6576297 0.7310354 -0.1819628 0.6576297 0.7310355 -0.1819628 0.6576297 0.7310354 -0.1819627 0.6768977 0.7241404 0.1320241 0.9344677 -0.1321913 -0.3305988 0.6328682 0.4019258 0.6617655 0.5778644 -0.4777545 0.6616823 0.6708356 0.334758 -0.6617528 0.7395826 -0.1234238 0.6616525 0.9626022 0.195539 0.1875143 0.9626022 0.1955389 0.1875143 0.9626021 0.1955389 0.1875143 0.972265 0.1971832 -0.1257762 -0.934599 0.1319036 0.3303428 -0.9722703 -0.1972712 0.1255971 -0.5949429 -0.1207029 -0.7946533 -0.1630174 0.9309746 0.3266677 -0.06905823 -0.6031125 -0.7946611 -0.4103724 -0.4473749 0.7946385 -0.2986869 0.5284852 -0.7946632 -0.3246976 -0.06586813 -0.9435216 0.2305418 0.2430429 -0.9422211 -0.1107811 -0.9860478 0.124247 0.1468966 -0.2874388 0.9464673 -0.9888568 -0.1005437 -0.1097871 0.08486956 0.2796397 -0.9563467 -0.1375223 0.9478566 -0.2874985 -0.1633759 0.9295964 0.3303919 -0.1023218 0.6898751 0.7166608 -0.3426124 -0.6674798 -0.6611258 0.5821372 -0.4882277 -0.6501923 0.5821372 -0.4882278 -0.6501923 0.112807 0.9856436 -0.1256237 -0.7086949 0.1336395 -0.6927424 -0.03662824 -0.9949897 0.09302729 -0.03662824 -0.9949897 0.09302729 -0.03662824 -0.9949897 0.09302729 0.06541389 0.3609345 0.9302942 -0.8336841 0.3972901 -0.3835772 -0.8336842 0.39729 -0.3835772 -0.8336842 0.3972901 -0.3835772 -0.7112526 0.6897508 0.1355125 -0.9571669 -0.1937229 0.2151812 -0.3246914 -0.06586796 -0.9435238 -0.3691539 -0.8686216 -0.3304876 0.1846915 -0.7269951 -0.6613375 -0.7335123 0.1320814 -0.6667191 -0.286998 -0.6892865 -0.6652191 -0.6805438 0.3130814 -0.6624501 -0.1129678 -0.9856121 0.125727 -0.1129678 -0.985612 0.1257269 -0.1129678 -0.9856121 0.125727 -0.3247141 -0.06590199 -0.9435135 0.01473987 0.793941 0.6078163 0.6706025 0.7311114 0.1255728 -0.1772298 -0.1932956 0.9650008 0.2967438 -0.5401756 0.7874982 0.298674 -0.5284975 0.7946598 0.3250445 0.06550592 0.9434273 0.5257416 -0.5345973 -0.6616657 0.1182553 0.9833138 -0.1382384 -0.1689172 -0.873709 0.4561792 0.7120208 -0.6196135 -0.3303114 -0.2757077 -0.6972799 0.661654 0.5522745 -0.251981 -0.7946687 0.05359894 0.1356286 -0.9893088 -0.2239158 -0.2441682 0.9435273 -0.08264672 0.9428889 0.3226919 -0.1114622 -0.5245833 -0.8440312 0.09756487 -0.7643709 -0.6373525 0.1094671 0.9866841 -0.1202974 0.4780167 -0.5661921 -0.6715107 0.4780167 -0.5661921 -0.6715107 0.4780167 -0.566192 -0.6715107 0.8352782 0.4377616 0.3326786 -0.1770467 0.735485 -0.6540004 0.2753357 0.6978837 -0.6611722 0.5334665 -0.5026516 -0.680261 0.3389865 0.7189429 0.6068024 0.3389865 0.7189429 0.6068025 0.3389865 0.7189429 0.6068025 0.6706574 0.7310619 0.1255673 0.8336427 0.442626 0.3303367 0.664479 0.7235089 -0.18709 -0.1221705 -0.9852834 0.1195448 -0.0114569 0.7409431 -0.6714701 -0.4039507 -0.5967612 0.6933254 0.4832175 -0.8551456 0.1876885 -0.2500751 0.9671074 -0.04653739 0.8935723 -0.4078466 -0.1875893 0.4104761 0.4472825 -0.7946369 0.6719401 -0.6512171 -0.352722 0.6328494 0.4018426 0.661834 0.9025555 -0.4118416 0.1256182 0.9626294 0.1952888 0.187635</float_array>
          <technique_common>
            <accessor source="#shape0-mesh-normals-array" count="444" stride="3">
              <param name="X" type="float"/>
              <param name="Y" type="float"/>
              <param name="Z" type="float"/>
            </accessor>
          </technique_common>
        </source>
        <source id="shape0-mesh-map-0">
          <float_array id="shape0-mesh-map-0-array" count="2400">0.897347 0.4358973 0.8213673 0.4357227 0.8732893 0.3641791 0.5995066 0.4831224 0.6483235 0.4498824 0.6777647 0.5168217 0.7647585 0.3740125 0.7140436 0.317812 0.7788928 0.3135815 0.6840873 0.752906 0.6319673 0.7827767 0.6362597 0.697442 0.141571 0.8846963 0.1135451 0.814629 0.1525132 0.8302314 0.6840873 0.752906 0.761997 0.7579395 0.7096708 0.820169 0.9703115 0.3934525 0.9573076 0.3989698 0.9711232 0.3174968 0.8022214 0.06008052 0.7855131 0.09176993 0.7789686 0 0.1668119 0.8979077 0.141571 0.8846963 0.1525132 0.8302314 0.2204201 0.7952607 0.2046229 0.8463897 0.1547269 0.7928607 0.761997 0.7579395 0.7955533 0.7549665 0.8185095 0.7919219 0.2199103 0.8987092 0.1668119 0.8979077 0.2046229 0.8463897 0.669664 0.6466239 0.6922444 0.7012753 0.6319673 0.6682288 0.7694388 0.7282041 0.761997 0.7579395 0.6922444 0.7012753 0.2818606 0.8111348 0.2552146 0.8598933 0.226767 0.8173125 0.492861 0.353435 0.5513396 0.3749565 0.5010658 0.3656257 0.7789593 0.1929234 0.7584533 0.2510976 0.7507125 0.1877647 0.1784446 0.3594209 0.1554428 0.4190176 0.1164315 0.3692192 0.2499876 0.4192501 0.2102311 0.4056655 0.2368786 0.35956 0.1438573 0.3209496 0.1164315 0.3692192 0.1001409 0.3180274 0.5570282 0.8002641 0.5328742 0.7015048 0.6306251 0.7422249 0.6465395 0.2484771 0.6006838 0.2179937 0.6465436 0.1799809 0.5607948 0.1701879 0.5995066 0.2759348 0.5060719 0.2624263 0.7444111 0.9359358 0.6896499 0.9175443 0.7068674 0.8947298 0.8426988 0.938836 0.8185096 0.9159372 0.8725941 0.8986026 0.2432675 0.3211932 0.2368786 0.35956 0.197849 0.309738 0.8329163 0.8697032 0.8318718 0.8531134 0.8725941 0.8986026 0.5570282 0.8002641 0.5067622 0.8813328 0.4568801 0.787768 0.2745484 0.32158 0.2518035 0.3284028 0.2065339 0.2990282 0.6197914 0.9424812 0.6065591 0.9299316 0.6197914 0.8865759 0.2965199 0.7944546 0.2818606 0.8663233 0.2818605 0.7515534 0.4317689 0.8299829 0.4568801 0.787768 0.4633516 0.8591831 0.4317689 0.8299829 0.4633516 0.8591831 0.4041422 0.8745475 0.266344 0.2814396 0.2375013 0.2827681 0.2426304 0.2337753 0.1610106 0.1906673 0.204555 0.2692811 0.1457179 0.2138568 0.5083296 0.6797766 0.4795998 0.7331818 0.4612112 0.7142102 0.4830173 0.08790618 0.4212225 0.09196341 0.4868079 0.06534922 0.2705577 0.6552543 0.2699037 0.7084528 0.2206392 0.7030908 0.4612112 0.7142102 0.4409241 0.6312652 0.5083296 0.6797766 0.438315 0.7655045 0.4795998 0.7331818 0.4568801 0.787768 0.5358448 0.1134997 0.4830173 0.08790618 0.4868079 0.06534922 0.4132391 0.03658425 0.500328 0 0.4868079 0.06534922 0.4612112 0.7142102 0.4054597 0.7570036 0.3727539 0.6948524 0.4612112 0.7142102 0.3727539 0.6948524 0.4291555 0.6330133 0.1984868 0.1287337 0.1713396 0.1765103 0.1520577 0.1334447 0.2905595 0.1669574 0.263922 0.2130553 0.2327209 0.1668177 0.4054597 0.7570036 0.438315 0.7655045 0.4191466 0.7747435 0.135233 0.04849672 0.08784776 0.1076468 0.06515258 0.05557298 0.187676 0.1068128 0.2024385 0.09699577 0.1520577 0.1334447 0.1520577 0.1334447 0.1016097 0.1168491 0.187676 0.1068128 0.2519418 0.117671 0.2905595 0.1669574 0.2327209 0.1668177 0.37642 0.822948 0.3430984 0.8629391 0.3279183 0.8102312 0.8003882 0.9319223 0.7786509 0.900765 0.8003882 0.8519943 0.500328 0 0.5788124 0.01134711 0.566877 0.06613445 0.1387743 0.02005839 0.135233 0.04849672 0.06515258 0.05557298 0.9339406 0.8215812 0.9068085 0.840952 0.9044564 0.7935876 0.9339406 0.8215812 1 0.8178297 0.9517949 0.8573052 0.9339406 0.8215812 0.9044564 0.7935876 0.9479832 0.7806723 0.05042093 0.6346232 0.04779928 0.6101728 0.06541389 0.5901212 0.9655847 0.9437111 0.9276254 0.9588273 0.9276154 0.9138944 0.03715634 0.8644047 0.04434508 0.8217883 0.08124387 0.8432419 0.9956492 0.7755244 0.9652619 0.7458509 1 0.7407689 0.007424652 0.8332613 0.03314989 0.7928607 0.04434508 0.8217883 0.9652619 0.7458509 0.9801576 0.7335574 1 0.7407689 0.897347 0.4358973 0.8732893 0.3641791 0.9573075 0.3914687 0.9573075 0.3914687 0.8732893 0.3641791 0.9322708 0.3195068 0.6483235 0.4498824 0.6777713 0.377671 0.7261358 0.4516496 0.7261358 0.4516496 0.6777713 0.377671 0.7647585 0.3740125 0.8732917 0.5072228 0.8213673 0.4357227 0.897347 0.4358973 0.9573075 0.4798706 0.897347 0.4358973 0.9573075 0.3914687 0.4384427 0.5511796 0.4019711 0.5009447 0.4784441 0.503046 0.4590489 0.4364438 0.4019711 0.5009447 0.3722428 0.419749 0.4784441 0.503046 0.4019711 0.5009447 0.4590489 0.4364438 0.08123415 0.4839711 0.05547648 0.5489847 0.009956717 0.4889141 0.6483235 0.4498824 0.5995066 0.3971174 0.6777713 0.377671 0.6777713 0.377671 0.7140436 0.317812 0.7647585 0.3740125 0.3722428 0.419749 0.3606097 0.3386138 0.4278739 0.3649049 0.2965199 0.8374451 0.3032771 0.7515534 0.3032771 0.8430389 0.6777713 0.377671 0.5995066 0.3971174 0.6487132 0.3350148 0.6777713 0.377671 0.6487132 0.3350148 0.7009413 0.3134721 0.5010658 0.3656257 0.4590489 0.4364438 0.4278739 0.3649049 0.5010658 0.3656257 0.5307932 0.4468209 0.4590489 0.4364438 0.08123415 0.4839711 0.0261445 0.4154608 0.08679825 0.4059013 0.555527 0.8865759 0.555527 0.9499692 0.530722 0.9398301 0.8185095 0.7919219 0.7960634 0.8195296 0.761997 0.7579395 0.9726437 0.3018712 0.9493788 0.2441462 0.9726437 0.2156878 0.5060719 0.2624263 0.492861 0.353435 0.4278739 0.3649049 0.3718627 0.330089 0.3390095 0.3121529 0.3929926 0.2407828 0.3390095 0.3121529 0.3035367 0.2189973 0.3929926 0.2407828 0.7789593 0.1929234 0.6854919 0.1544319 0.7855131 0.09176993 0.1554428 0.4190176 0.1316646 0.4725267 0.1047222 0.4223469 0.06755024 0.3412032 0.0261445 0.4154608 0 0.3551879 0.07217931 0.3864456 0.06755024 0.3412032 0.08409106 0.3383063 0.07217931 0.3864456 0.0261445 0.4154608 0.06755024 0.3412032 0.8195443 0.2582617 0.7789593 0.1929234 0.8533052 0.1649049 0.2552146 0.8598933 0.2350875 0.8389572 0.226767 0.8173125 0.2102311 0.4056655 0.199659 0.4559943 0.1554428 0.4190176 0.2499876 0.4192501 0.199659 0.4559943 0.2102311 0.4056655 0.669664 0.6466239 0.7260106 0.6502633 0.6922444 0.7012753 0.9197921 0.09246516 0.8533052 0.03798121 0.9191673 0.05362892 0.3929926 0.2407828 0.3035367 0.2189973 0.3778748 0.1349966 0.6854919 0.1544319 0.6106935 0.10019 0.6866053 0.03726482 0.2451141 0.7515534 0.2818606 0.8111348 0.226767 0.8173125 0.9126809 0.1187364 0.8533052 0.03798121 0.9197921 0.09246516 0.01296776 0.3271622 0.08409106 0.3383063 0.06755024 0.3412032 0.5060719 0.2624263 0.3929926 0.2407828 0.4654666 0.1692472 0.3929926 0.2407828 0.3778748 0.1349966 0.4654666 0.1692472 0.6922444 0.7012753 0.7260106 0.6502633 0.7457287 0.6871194 0.9128157 0.2143703 0.9126809 0.1187364 0.9272298 0.17109 0.7507125 0.1877647 0.6854919 0.1544319 0.7789593 0.1929234 0.7062878 0.2129034 0.6465436 0.1799809 0.6854919 0.1544319 0.7584533 0.2510976 0.7023349 0.2740013 0.7062878 0.2129034 0.7062878 0.2129034 0.6465395 0.2484771 0.6465436 0.1799809 0.7260106 0.6502633 0.669664 0.6466239 0.6931988 0.5953974 0.726844 0.3134722 0.7023349 0.2740013 0.7584533 0.2510976 0.6931988 0.5953974 0.6350715 0.6065087 0.6647414 0.5511795 0.9768961 0.6524024 0.9386745 0.6290184 0.9768961 0.6184991 0.2368786 0.35956 0.2102311 0.4056655 0.1784446 0.3594209 0.6306251 0.7422249 0.5328742 0.7015048 0.6158745 0.7110816 0.726844 0.3134722 0.6592439 0.310633 0.7023349 0.2740013 0.7525485 0.6479073 0.7260106 0.6502633 0.7510834 0.5938344 0.9768961 0.6184991 0.9386745 0.6290184 0.9760317 0.5932378 0.9128157 0.2143703 0.9272298 0.17109 0.9392742 0.2156878 0.1511642 0.294146 0.1438573 0.3209496 0.1001409 0.3180274 0.5875198 0.6612328 0.6222235 0.6933155 0.557156 0.7102081 0.1457179 0.2138568 0.1001409 0.3180274 0.03404742 0.2315055 0.6465395 0.2484771 0.6592439 0.310633 0.5995066 0.2777047 0.6931988 0.5953974 0.6647414 0.5511795 0.7201369 0.5525004 0.6319674 0.6261792 0.5729287 0.6015737 0.6111193 0.5614901 0.8725941 0.8986026 0.8318718 0.8531134 0.9044565 0.8049437 0.197849 0.309738 0.1438573 0.3209496 0.1511642 0.294146 0.3778748 0.1349966 0.4830173 0.08790618 0.4654666 0.1692472 0.8318718 0.8531134 0.8299704 0.8227369 0.9044565 0.8049437 0.5328742 0.7015048 0.5570282 0.8002641 0.4568801 0.787768 0.9186754 0.6722977 0.881123 0.6149658 0.9386744 0.6149832 0.5729287 0.6015737 0.5520588 0.5511796 0.6111193 0.5614901 0.9094942 0.5628298 0.881123 0.6149658 0.8605397 0.5897902 0.573714 0.9613696 0.555527 0.9212122 0.573714 0.886576 0.2745484 0.32158 0.2065339 0.2990282 0.2515559 0.2870385 0.2515559 0.2870385 0.2065339 0.2990282 0.204555 0.2692811 0.08343422 0.1445868 0.03404742 0.2315055 0 0.1530053 0.1457179 0.2138568 0.03404742 0.2315055 0.08343422 0.1445868 0.204555 0.2692811 0.2065339 0.2990282 0.1457179 0.2138568 0.6269951 0.9373506 0.6197913 0.9177579 0.6269951 0.8865759 0.3408796 0.8948689 0.3035368 0.9473387 0.3035368 0.8865759 0.3889374 0.08415758 0.3637967 0.09230607 0.4132391 0.03658425 0.5083296 0.6797766 0.5328742 0.7015048 0.4795998 0.7331818 0.4011617 0.9107263 0.4368696 0.8865759 0.4356978 0.9244698 0.4368696 0.949296 0.4011617 0.9107263 0.4356978 0.9244698 0.08784776 0.1076468 0.08343422 0.1445868 0 0.1530053 0.07063549 0.1014314 0.08784776 0.1076468 0 0.1530053 0.4830644 0.6244264 0.5266971 0.6535046 0.5083296 0.6797766 0.505849 0.5888157 0.5266971 0.6535046 0.4830644 0.6244264 0.9628437 0.1499274 0.9392742 0.1708159 0.960147 0.09432786 0.1610106 0.1906673 0.1457179 0.2138568 0.08343422 0.1445868 0.4568801 0.787768 0.4317689 0.8299829 0.4191466 0.7747435 0.8495478 0.6766852 0.8268371 0.7244216 0.8185096 0.6873101 0.0695309 0.7701419 0.1458019 0.7130012 0.1508291 0.7928607 0.505849 0.5888157 0.4830644 0.6244264 0.4843076 0.5741441 0.2206391 0.7478042 0.1458019 0.7130012 0.2084871 0.6522656 0.4317689 0.8299829 0.4041422 0.8745475 0.37642 0.822948 0.4191466 0.7747435 0.4317689 0.8299829 0.37642 0.822948 0.4612112 0.7142102 0.4795998 0.7331818 0.438315 0.7655045 0.4409241 0.6312652 0.4110702 0.5613773 0.4843076 0.5741441 0.566877 0.06613445 0.5358448 0.1134997 0.4868079 0.06534922 0.566877 0.06613445 0.5718643 0.1193397 0.5358448 0.1134997 0.8533052 0.2479008 0.854228 0.2156878 0.8991146 0.2527699 0.4612112 0.7142102 0.438315 0.7655045 0.4054597 0.7570036 0.4409241 0.6312652 0.4612112 0.7142102 0.4291555 0.6330133 0.9386745 0.6524022 0.9533161 0.7128215 0.9386745 0.7201722 0.2327209 0.1668177 0.1713396 0.1765103 0.1984868 0.1287337 0.187676 0.1068128 0.1016097 0.1168491 0.135233 0.04849672 0.3574461 0.7640897 0.37642 0.822948 0.3279183 0.8102312 0.9253549 0.2561914 0.9493789 0.2165567 0.9493789 0.3002006 0.9253549 0.2561914 0.9117676 0.2156878 0.9493789 0.2165567 0.7578406 0.9260857 0.7786509 0.900765 0.8003882 0.9319223 0.8159824 0.9036437 0.8003882 0.8586177 0.8159824 0.820169 0.7786509 0.900765 0.7444111 0.8802847 0.7877961 0.8575846 0.7578406 0.9260857 0.7444111 0.8802847 0.7786509 0.900765 0.1458019 0.7130012 0.1301493 0.6303215 0.2084871 0.6522656 0.05737894 0.6746035 0.1301493 0.6303215 0.1458019 0.7130012 0.3574461 0.7640897 0.3279183 0.8102312 0.313327 0.7580635 0.1301493 0.6303215 0.1588043 0.5763166 0.2084871 0.6522656 0.4667281 0.9604334 0.4368697 0.9431689 0.4588208 0.9003655 0.2169123 0.03158593 0.1387743 0.02005839 0.1412705 0 0.113545 0.867841 0.08124387 0.8432419 0.113545 0.8277313 0.0778343 0.8914768 0.08124387 0.8432419 0.113545 0.867841 0.9276254 0.9588273 0.9151858 0.9086641 0.9276154 0.9138944 1 0.8178297 0.9339406 0.8215812 0.9479832 0.7806723 0.05737894 0.6746035 0.03960001 0.6706523 0.05042093 0.6346232 0.05737894 0.6746035 0.06541389 0.5901212 0.1301493 0.6303215 0.06541389 0.5901212 0.1588043 0.5763166 0.1301493 0.6303215 0.02950066 0.9156776 0.03715634 0.8644047 0.0778343 0.8914768 0.06541389 0.5901212 0.09057146 0.5489847 0.1588043 0.5763166 0.4889665 0.9254747 0.4697791 0.9546779 0.4727689 0.9253894 0.9956492 0.7755244 1 0.8178297 0.9479832 0.7806723 0.9276154 0.9138944 0.9151858 0.9086641 0.9278768 0.8762538 0.9278768 0.8762538 0.9151858 0.9086641 0.9052196 0.8618195 0.4697791 0.9546779 0.4911749 0.9656435 0.466728 0.965251 0.9956492 0.7755244 0.9479832 0.7806723 0.9652619 0.7458509 0.9876568 0.9236352 0.9655847 0.9437111 0.9657386 0.8951721 0.9657386 0.8951721 0.9278768 0.8762538 0.9455233 0.858829 0.03715634 0.8644047 0.004002094 0.8814856 0.007424652 0.8332613 0.4019711 0.5009447 0.3307693 0.4746406 0.3722428 0.419749 0.8732893 0.3641791 0.8213673 0.4357227 0.7963284 0.3637604 0.7261358 0.4516496 0.7647585 0.3740125 0.7963284 0.4436753 0.3307693 0.4746406 0.3035367 0.4031044 0.3722428 0.419749 0.6777647 0.5168217 0.6483235 0.4498824 0.7261358 0.4516496 0.08123415 0.4839711 0.1412186 0.535436 0.05547648 0.5489847 0.5995066 0.4831224 0.5995066 0.3971174 0.6483235 0.4498824 0.4590489 0.4364438 0.3722428 0.419749 0.4278739 0.3649049 0.8732917 0.5072228 0.897347 0.4358973 0.9573075 0.4798706 0.5307932 0.4468209 0.4784441 0.503046 0.4590489 0.4364438 0.1316646 0.4725267 0.1412186 0.535436 0.08123415 0.4839711 0.166231 0.4843277 0.1412186 0.535436 0.1316646 0.4725267 0.9573076 0.3989698 0.9573076 0.3134722 0.9711232 0.3174968 0.8215528 0.1131669 0.8533052 0.1649049 0.7855131 0.09176993 0.7855131 0.09176993 0.6866053 0.03726482 0.7789686 0 0.3718627 0.330089 0.3929926 0.2407828 0.4278739 0.3649049 0.492861 0.353435 0.5010658 0.3656257 0.4278739 0.3649049 0.2046229 0.8463897 0.1525132 0.8302314 0.1547269 0.7928607 0.1668119 0.8979077 0.1525132 0.8302314 0.2046229 0.8463897 0.8533052 0.1649049 0.7789593 0.1929234 0.7855131 0.09176993 0.7855131 0.09176993 0.6854919 0.1544319 0.6866053 0.03726482 0.08679825 0.4059013 0.0261445 0.4154608 0.07217931 0.3864456 0.3929926 0.2407828 0.5060719 0.2624263 0.4278739 0.3649049 0.9191673 0.05362892 0.8533052 0.03798121 0.9392742 0 0.1668119 0.8979077 0.1135451 0.9295425 0.141571 0.8846963 0.669664 0.6466239 0.6319673 0.6682288 0.6350715 0.6065087 0.761997 0.7579395 0.6840873 0.752906 0.6922444 0.7012753 0.6866053 0.03726482 0.6106935 0.10019 0.6087358 0.01557594 0.7457287 0.6871194 0.7694388 0.7282041 0.6922444 0.7012753 0.4011617 0.8865758 0.4011617 0.9503161 0.3537026 0.9123769 0.9272298 0.17109 0.9126809 0.1187364 0.9352711 0.13723 0.5570282 0.8002641 0.6144831 0.8533675 0.5067622 0.8813328 0.7023349 0.2740013 0.6465395 0.2484771 0.7062878 0.2129034 0.5313338 0.3491557 0.492861 0.353435 0.5060719 0.2624263 0.1001409 0.3180274 0.08409106 0.3383063 0.01296776 0.3271622 0.669664 0.6466239 0.6350715 0.6065087 0.6931988 0.5953974 0.1784446 0.3594209 0.1164315 0.3692192 0.1438573 0.3209496 0.7510834 0.5938344 0.7260106 0.6502633 0.6931988 0.5953974 0.6465436 0.1799809 0.6006838 0.2179937 0.5995066 0.1668794 0.9386744 0.6149832 0.881123 0.6149658 0.9094942 0.5628298 0.5607948 0.1701879 0.5060719 0.2624263 0.4654666 0.1692472 0.5995066 0.2759348 0.5313338 0.3491557 0.5060719 0.2624263 0.606559 0.9519112 0.5932237 0.9364013 0.606559 0.8865759 0.6896499 0.9175443 0.6319673 0.9359358 0.6365467 0.8752169 0.1001409 0.3180274 0.01296776 0.3271622 0.03404742 0.2315055 0.1511642 0.294146 0.1001409 0.3180274 0.1457179 0.2138568 0.9386744 0.7173222 0.8849614 0.7199891 0.9186754 0.6722977 0.7510834 0.5938344 0.6931988 0.5953974 0.7201369 0.5525004 0.5875198 0.6612328 0.5729287 0.6015737 0.6319674 0.6261792 0.9760317 0.5932378 0.9386745 0.6290184 0.9496381 0.5621583 0.197849 0.309738 0.2368786 0.35956 0.1784446 0.3594209 0.8185096 0.9159372 0.8329163 0.8697032 0.8725941 0.8986026 0.4212225 0.09196341 0.3889374 0.08415758 0.4132391 0.03658425 0.8853642 0.5511796 0.9094942 0.5628298 0.8605397 0.5897902 0.6232165 0.5168218 0.6119222 0.5456315 0.5995066 0.5168218 0.4641427 0.8865759 0.4568801 0.787768 0.5067622 0.8813328 0.5875198 0.6612328 0.557156 0.7102081 0.5266971 0.6535046 0.5266971 0.6535046 0.557156 0.7102081 0.5083296 0.6797766 0.2705577 0.6552543 0.2222908 0.6200522 0.2807834 0.5716072 0.2807834 0.5716072 0.2222908 0.6200522 0.2723029 0.5635334 0.9186754 0.6722977 0.8495478 0.6766852 0.881123 0.6149658 0.8849614 0.7199891 0.8495478 0.6766852 0.9186754 0.6722977 0.3537027 0.9221962 0.3035368 0.9473387 0.3408796 0.8948689 0.8561974 0.2842139 0.8991146 0.2527699 0.9117677 0.2842139 0.9628437 0.1933828 0.9392742 0.1708159 0.9628437 0.1499274 0.5729287 0.6015737 0.5875198 0.6612328 0.5266971 0.6535046 0.4795998 0.7331818 0.5328742 0.7015048 0.4568801 0.787768 0.881123 0.6149658 0.830411 0.6402193 0.8605397 0.5897902 0.8495478 0.6766852 0.830411 0.6402193 0.881123 0.6149658 0.5607948 0.1701879 0.4830173 0.08790618 0.5358448 0.1134997 0.2795401 0.2444422 0.266344 0.2814396 0.2426304 0.2337753 0.2705577 0.6552543 0.2206392 0.7030908 0.2222908 0.6200522 0.2037592 0.2419897 0.1610106 0.1906673 0.1713396 0.1765103 0.2327209 0.1668177 0.2037592 0.2419897 0.1713396 0.1765103 0.8495478 0.6766852 0.8185096 0.6873101 0.830411 0.6402193 0.1508291 0.7928607 0.1458019 0.7130012 0.2206391 0.7478042 0.263922 0.2130553 0.2795401 0.2444422 0.2426304 0.2337753 0.4830644 0.6244264 0.4409241 0.6312652 0.4843076 0.5741441 0.2699037 0.7084528 0.2979928 0.7515535 0.2206392 0.7030908 0.263922 0.2130553 0.2426304 0.2337753 0.2037592 0.2419897 0.007222235 0.7928607 0 0.7266269 0.0695309 0.7701419 0 0.7266269 0.05737894 0.6746035 0.0695309 0.7701419 0.5358448 0.1134997 0.5718643 0.1193397 0.5607948 0.1701879 0.1016097 0.1168491 0.08343422 0.1445868 0.08784776 0.1076468 0.1520577 0.1334447 0.1610106 0.1906673 0.08343422 0.1445868 0.37642 0.822948 0.4041422 0.8745475 0.3430984 0.8629391 0.500328 0 0.566877 0.06613445 0.4868079 0.06534922 0.3574461 0.7640897 0.4191466 0.7747435 0.37642 0.822948 0.566877 0.06613445 0.5926432 0.1363251 0.5718643 0.1193397 0.2024385 0.09699577 0.1984868 0.1287337 0.1520577 0.1334447 0.0695309 0.7701419 0.05737894 0.6746035 0.1458019 0.7130012 0.2519418 0.117671 0.2327209 0.1668177 0.1984868 0.1287337 0.296884 0.1289802 0.2905595 0.1669574 0.2519418 0.117671 0.7786509 0.900765 0.7877961 0.8575846 0.8003882 0.8519943 0.1412705 0 0.1387743 0.02005839 0.06515258 0.05557298 0.3727539 0.6948524 0.4054597 0.7570036 0.3259535 0.7652123 0.7877961 0.8575846 0.7444111 0.8802847 0.7528629 0.8329119 0.8003882 0.9382861 0.8003882 0.9036436 0.8131844 0.9320236 0 0.7266269 0.03960001 0.6706523 0.05737894 0.6746035 0.3279183 0.8102312 0.3035368 0.8287864 0.313327 0.7580635 0.4667281 0.9604334 0.4588208 0.9003655 0.4667281 0.886576 0.9339406 0.8215812 0.9517949 0.8573052 0.9068085 0.840952 0.9129676 0.2950128 0.9253549 0.2561914 0.9493789 0.3002006 0.2519418 0.117671 0.1984868 0.1287337 0.2024385 0.09699577 0.3035368 0.6820472 0.3727539 0.6948524 0.3259535 0.7652123 0.9517949 0.8573052 1 0.8178297 0.9994611 0.8521572 0.9592384 0.6691707 0.9533162 0.7029565 0.9533162 0.6524023 0.2169123 0.03158593 0.2758693 0.1074065 0.2569916 0.09366869 0.2875341 0.04878014 0.2758693 0.1074065 0.2169123 0.03158593 0.06981587 0.9252889 0.02950066 0.9156776 0.0778343 0.8914768 0.9451246 0.9859002 0.9276254 0.9588273 0.9655847 0.9437111 0.466728 0.8865759 0.4889665 0.9254747 0.4727689 0.9253894 0.113545 0.8277313 0.08124387 0.8432419 0.07877403 0.7990306 0.972791 0.05881392 0.9392743 0.0943278 0.9392743 0 0.9562181 0.008533835 0.972791 0.05881392 0.9392743 0 0.04779928 0.6101728 0.04595708 0.6022312 0.06541389 0.5901212 0.4697791 0.9546779 0.4889665 0.9254747 0.4911749 0.9656435 0.9657386 0.8951721 0.9655847 0.9437111 0.9276154 0.9138944 0.9657386 0.8951721 0.9276154 0.9138944 0.9278768 0.8762538 0.9557654 2.48817e-5 0.9562181 0.008533835 0.9392743 0 0.9455233 0.858829 0.9278768 0.8762538 0.9052196 0.8618195 0.08124387 0.8432419 0.04434508 0.8217883 0.07877403 0.7990306 0.9479832 0.7806723 0.9228788 0.7490832 0.9652619 0.7458509 0.04434508 0.8217883 0.03314989 0.7928607 0.07877403 0.7990306 0.004150092 0.8229755 0 0.8099473 0.03314989 0.7928607 0.9652619 0.7458509 0.9550243 0.7244216 0.9801576 0.7335574 0.8732893 0.3641791 0.8547549 0.3134722 0.9322708 0.3195068 0.7647579 0.51317 0.7261358 0.4516496 0.7963284 0.4436753 0.8732917 0.5072228 0.7963316 0.5068052 0.8213673 0.4357227 0.08123415 0.4839711 0.009956717 0.4889141 0.0261445 0.4154608 0.7096708 0.820169 0.761997 0.7579395 0.7960634 0.8195296 0.3722428 0.419749 0.3035367 0.4031044 0.3606097 0.3386138 0.9322708 0.5509531 0.8732917 0.5072228 0.9573075 0.4798706 0.6840873 0.752906 0.7096708 0.820169 0.6319673 0.7827767 0.6840873 0.752906 0.6362597 0.697442 0.6384925 0.6873044 0.6777713 0.377671 0.7009413 0.3134721 0.7140436 0.317812 0.3606097 0.3386138 0.3718627 0.330089 0.4278739 0.3649049 0.4963102 0.8865759 0.5307219 0.9282821 0.4911749 0.9282821 0.6840873 0.752906 0.6384925 0.6873044 0.6922444 0.7012753 0.1047222 0.4223469 0.1316646 0.4725267 0.08123415 0.4839711 0.1554428 0.4190176 0.1047222 0.4223469 0.1164315 0.3692192 0.2206391 0.9156031 0.2350875 0.8389572 0.2552146 0.8598933 0.8195443 0.2582617 0.7833346 0.230261 0.7789593 0.1929234 0.7955533 0.7549665 0.761997 0.7579395 0.7694388 0.7282041 0.2102311 0.4056655 0.1554428 0.4190176 0.1784446 0.3594209 0.6558068 0.8201689 0.6837377 0.8617681 0.6365467 0.8752169 0.96744 0.4866692 0.9573076 0.4600762 0.96744 0.3989698 0.2451141 0.7515534 0.226767 0.8173125 0.2206391 0.7672098 0.9126809 0.1187364 0.9197921 0.09246516 0.9352711 0.13723 0.2818606 0.9499041 0.2818606 0.8663232 0.3017106 0.8976023 0.7507125 0.1877647 0.7062878 0.2129034 0.6854919 0.1544319 0.5570282 0.8002641 0.6306251 0.7422249 0.6144831 0.8533675 0.7023349 0.2740013 0.6592439 0.310633 0.6465395 0.2484771 0.7525485 0.6479073 0.7457287 0.6871194 0.7260106 0.6502633 0.6896499 0.9175443 0.6365467 0.8752169 0.6837377 0.8617681 0.8195443 0.2582617 0.7850484 0.259797 0.7833346 0.230261 0.6896499 0.9175443 0.6837377 0.8617681 0.7068674 0.8947298 0.6465395 0.2484771 0.5995066 0.2777047 0.6006838 0.2179937 0.5875198 0.6612328 0.6319674 0.6261792 0.6222235 0.6933155 0.9628437 0.1612986 0.9689847 0.09432786 0.9689847 0.187865 0.197849 0.309738 0.1784446 0.3594209 0.1438573 0.3209496 0.9763804 0.5511797 0.9760317 0.5932378 0.9496381 0.5621583 0.9044565 0.8049437 0.8348677 0.7855742 0.8185096 0.7244215 0.9044565 0.8049437 0.8299704 0.8227369 0.8348677 0.7855742 0.4830173 0.08790618 0.5607948 0.1701879 0.4654666 0.1692472 0.5520588 0.5511796 0.5729287 0.6015737 0.505849 0.5888157 0.2065339 0.2990282 0.1511642 0.294146 0.1457179 0.2138568 0.2807834 0.5716072 0.300072 0.6087347 0.2705577 0.6552543 0.8849614 0.7199891 0.8268371 0.7244216 0.8495478 0.6766852 0.2723029 0.5635334 0.2222908 0.6200522 0.2206391 0.5489848 0.505849 0.5888157 0.5729287 0.6015737 0.5266971 0.6535046 0.8991146 0.2527699 0.8561974 0.2842139 0.8533052 0.2479008 0.4212225 0.09196341 0.4132391 0.03658425 0.4868079 0.06534922 0.2426304 0.2337753 0.2375013 0.2827681 0.2037592 0.2419897 0.5083296 0.6797766 0.4409241 0.6312652 0.4830644 0.6244264 0.4191466 0.7747435 0.438315 0.7655045 0.4568801 0.787768 0.263922 0.2130553 0.2037592 0.2419897 0.2327209 0.1668177 0.4409241 0.6312652 0.4291555 0.6330133 0.4110702 0.5613773 0.1016097 0.1168491 0.1520577 0.1334447 0.08343422 0.1445868 0.3035367 0.2260343 0.2837293 0.2532399 0.263922 0.2130553 0.3035367 0.2260343 0.263922 0.2130553 0.2905595 0.1669574 0.4054597 0.7570036 0.4191466 0.7747435 0.3574461 0.7640897 0.135233 0.04849672 0.1016097 0.1168491 0.08784776 0.1076468 0.2169123 0.03158593 0.187676 0.1068128 0.135233 0.04849672 0.2169123 0.03158593 0.135233 0.04849672 0.1387743 0.02005839 0.2169123 0.03158593 0.2569916 0.09366869 0.187676 0.1068128 0.7877961 0.8575846 0.7528629 0.8329119 0.7930269 0.820169 0.9451246 0.9859002 0.9044564 0.984075 0.9276254 0.9588273 0.5932237 0.9362363 0.573714 0.9100368 0.5932237 0.8865759 0.0778343 0.8914768 0.03715634 0.8644047 0.08124387 0.8432419 0.9276254 0.9588273 0.9044564 0.984075 0.9151858 0.9086641 0.05737894 0.6746035 0.05042093 0.6346232 0.06541389 0.5901212 0.9479832 0.7806723 0.9044564 0.7935876 0.9228788 0.7490832 0.02950066 0.9156776 0.004002094 0.8814856 0.03715634 0.8644047 0.9044565 0.8573054 0.9455233 0.858829 0.9052196 0.8618195 0.03715634 0.8644047 0.007424652 0.8332613 0.04434508 0.8217883 0.007424652 0.8332613 0.004150092 0.8229755 0.03314989 0.7928607</float_array>
          <technique_common>
            <accessor source="#shape0-mesh-map-0-array" count="1200" stride="2">
              <param name="S" type="float"/>
              <param name="T" type="float"/>
            </accessor>
          </technique_common>
        </source>
        <vertices id="shape0-mesh-vertices">
          <input semantic="POSITION" source="#shape0-mesh-positions"/>
        </vertices>
        <triangles material="Material_001-material" count="400">
          <input semantic="VERTEX" source="#shape0-mesh-vertices" offset="0"/>
          <input semantic="NORMAL" source="#shape0-mesh-normals" offset="1"/>
          <input semantic="TEXCOORD" source="#shape0-mesh-map-0" offset="2" set="0"/>
          <p>167 0 0 43 0 1 0 0 2 169 1 3 168 1 4 43 1 5 44 2 6 4 2 7 5 2 8 47 3 9 104 3 10 170 3 11 113 4 12 3 4 13 6 4 14 47 5 15 46 5 16 169 5 17 4 6 18 106 7 19 5 7 20 106 8 21 51 8 22 7 8 23 49 9 24 113 9 25 6 9 26 171 10 27 110 10 28 8 10 29 46 11 30 112 12 31 52 12 32 63 13 33 49 13 34 110 13 35 174 14 36 173 14 37 49 14 38 177 15 39 46 15 40 173 15 41 117 16 42 109 16 43 176 16 44 55 17 45 178 17 46 111 17 47 54 18 48 11 18 49 175 18 50 16 19 51 171 19 52 117 19 53 63 20 54 114 20 55 180 20 56 65 21 57 117 21 58 122 21 59 68 22 60 118 22 61 57 22 62 61 23 63 120 23 64 58 23 65 78 24 66 73 24 67 53 24 68 66 25 69 179 25 70 182 25 71 124 26 72 71 26 73 185 26 74 72 27 75 180 27 76 19 27 77 20 28 78 125 29 79 185 30 80 68 31 81 186 31 82 132 31 83 186 32 84 127 32 85 129 32 86 129 33 87 19 33 88 67 33 89 133 34 90 132 34 91 130 34 92 26 35 93 132 35 94 133 35 95 26 36 96 133 36 97 28 36 98 76 37 99 134 37 100 139 37 101 135 38 102 187 38 103 123 38 104 74 39 105 83 39 106 29 39 107 23 40 108 190 40 109 145 40 110 188 41 111 25 41 112 30 41 113 29 42 114 81 42 115 74 42 116 191 43 117 83 43 118 132 43 119 24 44 120 23 44 121 145 44 122 75 45 123 143 45 124 145 45 125 29 46 126 192 46 127 196 46 128 29 47 129 196 47 130 88 47 131 86 48 132 138 48 133 84 48 134 149 49 135 85 49 136 31 49 137 192 50 138 191 50 139 146 50 140 195 51 141 147 51 142 32 51 143 151 52 144 148 53 145 84 54 146 84 55 147 193 56 148 151 57 149 90 58 150 149 58 151 31 58 152 87 59 153 149 59 154 33 59 155 88 60 156 194 61 157 82 62 158 143 63 159 150 63 160 32 63 161 93 64 162 195 64 163 32 64 164 94 65 165 153 65 166 37 65 167 94 66 168 155 66 169 34 66 170 94 67 171 37 67 172 97 67 173 197 68 174 96 68 175 161 68 176 95 69 177 160 69 178 38 69 179 40 70 180 165 70 181 158 70 182 98 71 183 100 72 184 201 73 185 201 74 186 162 74 187 165 74 188 100 75 189 99 75 190 201 75 191 167 76 192 0 76 193 2 76 194 2 77 195 0 77 196 1 77 197 168 78 198 103 78 199 101 78 200 101 79 201 103 79 202 44 79 203 104 80 204 43 80 205 167 80 206 3 81 207 167 81 208 2 81 209 2 82 210 1 82 211 102 82 212 105 83 213 1 83 214 42 83 215 102 84 216 1 84 217 105 84 218 10 85 219 2 85 220 102 85 221 168 86 222 107 86 223 103 86 224 103 87 225 4 87 226 44 87 227 42 88 228 5 88 229 48 88 230 170 89 231 3 89 232 113 89 233 103 90 234 107 90 235 45 90 236 103 91 237 45 91 238 106 91 239 111 92 240 105 92 241 48 92 242 111 93 243 9 93 244 105 93 245 10 94 246 9 94 247 172 94 248 45 95 249 107 95 250 52 95 251 52 96 252 107 96 253 46 96 254 106 97 255 7 97 256 108 97 257 53 98 258 55 98 259 48 98 260 108 99 261 7 99 262 50 99 263 7 100 264 56 100 265 50 100 266 54 101 267 59 101 268 51 101 269 171 102 270 8 102 271 109 102 272 178 103 273 9 103 274 111 103 275 176 104 276 178 104 277 181 104 278 176 105 279 9 105 280 178 105 281 57 106 282 54 106 283 52 106 284 109 107 285 172 107 286 176 108 287 114 109 288 110 109 289 171 109 290 63 110 291 110 110 292 114 110 293 174 111 294 15 111 295 173 111 296 177 112 297 57 112 298 112 112 299 50 113 300 56 113 301 18 113 302 59 114 303 185 114 304 56 114 305 122 115 306 117 115 307 176 115 308 12 116 309 57 116 310 177 116 311 13 117 312 181 117 313 178 117 314 53 118 315 50 118 316 121 118 317 50 119 318 18 119 319 121 119 320 173 120 321 15 120 322 62 120 323 186 121 324 12 121 325 64 121 326 175 122 327 59 122 328 54 122 329 115 123 330 58 123 331 59 123 332 11 124 333 60 124 334 115 124 335 115 125 336 61 125 337 58 125 338 15 126 339 174 126 340 17 126 341 183 127 342 60 127 343 11 127 344 17 128 345 63 128 346 180 128 347 59 129 348 58 130 349 116 131 350 180 132 351 114 132 352 16 132 353 57 133 354 118 133 355 182 133 356 183 134 357 119 134 358 60 134 359 64 135 360 15 135 361 127 135 362 116 136 363 58 136 364 124 136 365 186 137 366 64 137 367 127 137 368 67 138 369 65 138 370 122 138 371 184 139 372 179 139 373 66 139 374 123 140 375 122 140 376 73 140 377 61 141 378 119 141 379 21 141 380 17 142 381 180 142 382 72 142 383 183 143 384 131 143 385 119 143 386 185 144 387 125 144 388 18 144 389 19 145 390 65 145 391 67 145 392 18 146 393 23 146 394 121 146 395 125 147 396 126 147 397 18 147 398 118 148 399 68 148 400 132 148 401 21 149 402 69 149 403 120 149 404 131 150 405 128 150 406 119 150 407 70 151 408 69 151 409 188 151 410 127 152 411 72 152 412 129 152 413 186 153 414 129 153 415 130 153 416 130 154 417 129 154 418 187 154 419 136 155 420 73 155 421 78 155 422 123 156 423 73 156 424 136 156 425 187 157 426 129 157 427 123 157 428 66 158 429 118 159 430 74 160 431 134 161 432 130 161 433 187 161 434 126 162 435 125 162 436 75 162 437 74 163 438 118 163 439 83 163 440 133 164 441 130 164 442 22 164 443 28 165 444 133 165 445 22 165 446 147 166 447 136 166 448 78 166 449 144 167 450 147 167 451 78 167 452 142 168 453 79 168 454 74 168 455 77 169 456 79 169 457 142 169 458 80 170 459 187 170 460 135 170 461 135 171 462 123 171 463 136 171 464 132 172 465 26 172 466 146 172 467 189 173 468 77 173 469 27 173 470 30 174 471 141 174 472 137 174 473 77 175 474 142 175 475 27 175 476 75 176 477 141 176 478 143 176 479 26 177 480 28 177 481 87 177 482 146 178 483 26 178 484 87 178 485 29 179 486 83 179 487 191 179 488 81 180 489 82 180 490 27 180 491 32 181 492 24 181 493 145 181 494 32 182 495 144 182 496 24 182 497 140 183 498 85 183 499 22 183 500 29 184 501 191 184 502 192 184 503 81 185 504 29 185 505 88 185 506 84 186 507 138 186 508 135 186 509 31 187 510 138 187 511 86 187 512 151 188 513 193 188 514 195 188 515 152 189 516 87 189 517 33 189 518 153 190 519 88 190 520 196 190 521 153 191 522 34 191 523 88 191 524 34 192 525 194 192 526 88 192 527 192 193 528 152 193 529 35 193 530 194 194 531 91 194 532 89 194 533 34 195 534 91 195 535 194 195 536 141 196 537 159 196 538 143 196 539 198 197 540 159 197 541 141 197 542 152 198 543 33 198 544 156 198 545 159 199 546 150 199 547 143 199 548 156 200 549 90 200 550 148 200 551 39 201 552 93 201 553 150 201 554 154 202 555 158 202 556 92 202 557 157 203 558 158 203 559 154 203 560 160 204 561 36 205 562 38 206 563 155 207 564 94 207 565 97 207 566 198 208 567 92 208 568 197 208 569 198 209 570 161 209 571 159 209 572 161 210 573 150 210 574 159 210 575 155 211 576 40 211 577 157 211 578 161 212 579 39 212 580 150 212 581 163 213 582 96 213 583 197 213 584 98 214 585 155 214 586 97 214 587 38 215 588 36 215 589 166 215 590 166 216 591 36 216 592 164 216 593 96 217 594 162 217 595 200 217 596 98 218 597 97 218 598 100 218 599 100 219 600 95 219 601 199 219 602 199 220 603 166 220 604 162 220 605 40 221 606 98 221 607 201 221 608 1 222 609 41 222 610 42 222 611 0 223 612 43 223 613 101 223 614 101 224 615 44 224 616 41 224 617 41 225 618 44 225 619 42 225 620 43 226 621 168 226 622 101 226 623 10 227 624 3 227 625 2 227 626 169 228 627 107 228 628 168 228 629 105 229 630 42 229 631 48 229 632 104 230 633 167 230 634 3 230 635 9 231 636 102 231 637 105 231 638 8 232 639 3 232 640 10 232 641 6 233 642 3 233 643 8 233 644 106 234 645 108 234 646 5 234 647 45 235 648 52 235 649 51 235 650 51 236 651 56 236 652 7 236 653 108 237 654 50 237 655 48 237 656 55 238 657 111 239 658 48 240 659 110 241 660 6 241 661 8 241 662 49 242 663 6 242 664 110 242 665 52 243 666 54 243 667 51 243 668 51 244 669 59 244 670 56 244 671 172 245 672 9 245 673 176 245 674 50 246 675 53 246 676 48 246 677 112 247 678 57 247 679 52 247 680 49 248 681 173 248 682 113 248 683 174 249 684 49 249 685 63 249 686 46 250 687 47 250 688 173 250 689 56 251 690 185 251 691 18 251 692 62 252 693 177 252 694 173 252 695 175 253 696 11 253 697 115 253 698 64 254 699 12 254 700 62 254 701 68 255 702 12 255 703 186 255 704 60 256 705 61 256 706 115 256 707 13 257 708 55 257 709 53 257 710 122 258 711 181 258 712 13 258 713 174 259 714 63 259 715 17 259 716 16 260 717 117 260 718 65 260 719 127 261 720 15 261 721 17 261 722 58 262 723 120 262 724 70 262 725 120 263 726 69 263 727 70 263 728 78 264 729 53 264 730 121 264 731 73 265 732 13 265 733 53 265 734 116 266 735 124 266 736 185 266 737 179 267 738 183 267 739 11 267 740 122 268 741 13 268 742 73 268 743 67 269 744 122 269 745 123 269 746 119 270 747 128 270 748 21 270 749 127 271 750 17 271 751 72 271 752 184 272 753 131 272 754 183 272 755 124 273 756 58 273 757 70 273 758 19 274 759 180 274 760 16 274 761 71 275 762 20 275 763 185 275 764 190 276 765 126 276 766 75 276 767 71 277 768 70 277 769 188 277 770 72 278 771 19 278 772 129 278 773 130 279 774 132 279 775 186 279 776 184 280 777 66 280 778 79 280 779 79 281 780 66 281 781 74 281 782 188 282 783 137 282 784 20 282 785 20 283 786 137 284 787 125 284 788 21 285 789 189 285 790 69 285 791 128 286 792 189 286 793 21 286 794 76 287 795 130 287 796 134 287 797 76 288 798 22 288 799 130 288 800 134 289 801 187 289 802 80 289 803 131 290 804 184 290 805 79 290 806 83 291 807 118 291 808 132 291 809 69 292 810 25 292 811 188 292 812 189 293 813 25 293 814 69 293 815 78 294 816 23 294 817 24 294 818 140 295 819 76 295 820 139 295 821 188 296 822 30 296 823 137 296 824 80 297 825 135 297 826 138 297 827 31 298 828 80 298 829 138 298 830 189 299 831 27 299 832 25 299 833 137 300 834 141 300 835 75 300 836 85 301 837 140 301 838 139 301 839 142 302 840 81 302 841 27 302 842 25 303 843 27 303 844 30 303 845 85 304 846 139 304 847 80 304 848 27 305 849 82 305 850 30 305 851 82 306 852 198 306 853 30 306 854 24 307 855 144 307 856 78 307 857 193 308 858 136 308 859 147 308 860 84 309 861 135 309 862 136 309 863 87 310 864 28 310 865 149 310 866 143 311 867 32 311 868 145 311 869 152 312 870 146 312 871 87 312 872 32 313 873 147 313 874 144 313 875 148 314 876 86 314 877 84 314 878 30 315 879 198 315 880 141 315 881 90 316 882 31 316 883 86 316 884 33 317 885 149 317 886 90 317 887 194 318 888 89 319 889 82 320 890 150 321 891 93 321 892 32 321 893 196 322 894 192 322 895 35 322 896 89 323 897 91 324 898 157 323 899 89 325 900 154 326 901 82 327 902 82 328 903 92 328 904 198 328 905 33 329 906 90 329 907 156 329 908 156 330 909 148 330 910 151 330 911 94 331 912 34 331 913 153 331 914 37 332 915 153 332 916 196 332 917 90 333 918 86 333 919 148 333 920 36 334 921 196 334 922 35 334 923 34 335 924 155 335 925 91 335 926 35 336 927 152 336 928 156 336 929 39 337 930 35 337 931 156 337 932 36 338 933 35 338 934 39 338 935 91 339 936 155 339 937 157 339 938 37 340 939 160 340 940 95 340 941 92 341 942 163 341 943 197 341 944 92 342 945 158 342 946 163 342 947 36 343 948 39 343 949 161 343 950 164 344 951 36 345 952 161 346 953 96 347 954 200 347 955 161 347 956 96 348 957 163 348 958 162 348 959 199 349 960 95 350 961 38 351 962 199 352 963 38 352 964 166 352 965 200 353 966 164 353 967 161 353 968 162 354 969 166 354 970 164 354 971 158 355 972 165 355 973 163 355 974 97 356 975 95 356 976 100 356 977 165 357 978 162 357 979 163 357 980 99 358 981 199 359 982 162 360 983 100 361 984 199 361 985 99 361 986 0 362 987 41 362 988 1 362 989 0 363 990 101 363 991 41 363 992 104 364 993 169 364 994 43 364 995 10 365 996 102 365 997 9 365 998 169 366 999 46 366 1000 107 366 1001 42 367 1002 44 367 1003 5 367 1004 170 368 1005 104 368 1006 3 368 1007 47 369 1008 169 369 1009 104 369 1010 47 370 1011 170 370 1012 113 370 1013 103 371 1014 106 371 1015 4 371 1016 5 372 1017 108 372 1018 48 372 1019 106 373 1020 45 373 1021 51 373 1022 47 374 1023 113 374 1024 173 374 1025 109 375 1026 8 375 1027 10 375 1028 171 376 1029 109 376 1030 117 376 1031 10 377 1032 172 377 1033 109 377 1034 57 378 1035 14 378 1036 54 378 1037 112 379 1038 46 380 1039 177 380 1040 114 381 1041 171 381 1042 16 381 1043 54 382 1044 14 382 1045 11 382 1046 59 383 1047 116 384 1048 185 385 1049 122 386 1050 176 386 1051 181 386 1052 12 387 1053 177 388 1054 62 389 1055 178 390 1056 55 390 1057 13 390 1058 175 391 1059 115 391 1060 59 391 1061 68 392 1062 57 392 1063 12 392 1064 60 393 1065 119 393 1066 61 393 1067 64 394 1068 62 394 1069 15 394 1070 179 395 1071 11 395 1072 14 395 1073 57 396 1074 182 396 1075 14 396 1076 179 397 1077 14 397 1078 182 397 1079 61 398 1080 21 399 1081 120 400 1082 184 401 1083 183 401 1084 179 401 1085 66 402 1086 182 402 1087 118 402 1088 19 403 1089 16 403 1090 65 403 1091 71 404 1092 124 404 1093 70 404 1094 18 405 1095 190 405 1096 23 405 1097 18 406 1098 126 406 1099 190 406 1100 23 407 1101 78 407 1102 121 407 1103 128 408 1104 131 408 1105 77 408 1106 129 409 1107 67 409 1108 123 409 1109 20 410 1110 71 410 1111 188 410 1112 128 411 1113 77 411 1114 189 411 1115 125 412 1116 137 412 1117 75 412 1118 77 413 1119 131 413 1120 79 413 1121 22 414 1122 76 414 1123 140 414 1124 190 415 1125 75 415 1126 145 415 1127 139 416 1128 134 416 1129 80 416 1130 74 417 1131 81 417 1132 142 417 1133 146 418 1134 191 418 1135 132 418 1136 85 419 1137 80 419 1138 31 419 1139 81 420 1140 88 421 1141 82 422 1142 193 423 1143 84 423 1144 136 423 1145 28 424 1146 22 424 1147 85 424 1148 28 425 1149 85 425 1150 149 425 1151 192 426 1152 146 426 1153 152 426 1154 195 427 1155 193 428 1156 147 429 1157 39 430 1158 151 430 1159 195 430 1160 39 431 1161 195 431 1162 93 431 1163 39 432 1164 156 432 1165 151 432 1166 89 433 1167 157 433 1168 154 433 1169 37 434 1170 196 434 1171 160 434 1172 82 435 1173 154 435 1174 92 435 1175 157 436 1176 40 436 1177 158 436 1178 160 437 1179 196 437 1180 36 437 1181 198 438 1182 197 438 1183 161 438 1184 97 439 1185 37 439 1186 95 439 1187 155 440 1188 98 440 1189 40 440 1190 200 441 1191 162 441 1192 164 441 1193 40 442 1194 201 442 1195 165 442 1196 201 443 1197 99 443 1198 162 443 1199</p>
        </triangles>
      </mesh>
    </geometry>
  </library_geometries>
  <library_visual_scenes>
    <visual_scene id="Scene" name="Scene">
      <node id="node" name="node" type="NODE">
        <matrix sid="transform">0.4993148 0.8660254 0.02616798 0 -0.8648385 0.5 -0.04532427 4.65661e-10 -0.05233597 0 0.9986295 -7.45058e-9 0 0 0 1</matrix>
        <instance_geometry url="#shape0-mesh" name="node">
          <bind_material>
            <technique_common>
              <instance_material symbol="Material_001-material" target="#Material_001-material">
                <bind_vertex_input semantic="UVMap" input_semantic="TEXCOORD" input_set="0"/>
              </instance_material>
            </technique_common>
          </bind_material>
        </instance_geometry>
      </node>
    </visual_scene>
  </library_visual_scenes>
  <scene>
    <instance_visual_scene url="#Scene"/>
  </scene>
</COLLADA>