# Blender 4.5.1 LTS
# www.blender.org
mtllib pine_tree.mtl
o Plane
v 0.500000 0.000000 -0.000000
v -0.500000 -0.000000 0.000000
v 0.500000 -0.000000 4.000000
v -0.500000 -0.000000 4.000000
v 0.500000 -0.010000 -0.000000
v -0.500000 -0.010000 0.000000
v 0.500000 -0.010000 4.000000
v -0.500000 -0.010000 4.000000
v -0.000000 -0.500000 -0.000000
v -0.000000 0.500000 0.000000
v 0.000000 -0.500000 4.000000
v 0.000000 0.499999 4.000000
v -0.010000 -0.500000 -0.000000
v -0.010000 0.500000 0.000000
v -0.010000 -0.500000 4.000000
v -0.010000 0.499999 4.000000
vn -0.0000 1.0000 -0.0000
vn -0.0000 -1.0000 -0.0000
vn 1.0000 -0.0000 -0.0000
vn -0.0000 -0.0000 -1.0000
vn -1.0000 -0.0000 -0.0000
vn -0.0000 -0.0000 1.0000
vt 1.000000 0.000000
vt 0.000000 1.000000
vt 0.000000 0.000000
vt 1.000000 1.000000
s 1
usemtl Material.002
f 2/1/1 3/2/1 1/3/1
f 7/2/2 6/1/2 5/3/2
f 3/2/3 5/3/3 1/3/3
f 1/3/4 6/1/4 2/1/4
f 2/1/5 8/4/5 4/4/5
f 4/4/6 7/2/6 3/2/6
f 9/3/3 12/4/3 11/2/3
f 13/3/5 16/4/5 14/1/5
f 11/2/2 13/3/2 9/3/2
f 9/3/4 14/1/4 10/1/4
f 10/1/1 16/4/1 12/4/1
f 12/4/6 15/2/6 11/2/6
f 2/1/1 4/4/1 3/2/1
f 7/2/2 8/4/2 6/1/2
f 3/2/3 7/2/3 5/3/3
f 1/3/4 5/3/4 6/1/4
f 2/1/5 6/1/5 8/4/5
f 4/4/6 8/4/6 7/2/6
f 9/3/3 10/1/3 12/4/3
f 13/3/5 15/2/5 16/4/5
f 11/2/2 15/2/2 13/3/2
f 9/3/4 13/3/4 14/1/4
f 10/1/1 14/1/1 16/4/1
f 12/4/6 16/4/6 15/2/6
