<?xml version="1.0" encoding="utf-8"?>
<COLLADA xmlns="http://www.collada.org/2005/11/COLLADASchema" version="1.4.1" xmlns:xsi="http://www.w3.org/2001/XMLSchema-instance">
  <asset>
    <contributor>
      <author>Blender User</author>
      <authoring_tool>Blender 4.5.1 LTS commit date:2025-07-29, commit time:05:31, hash:b0a72b245dcf</authoring_tool>
    </contributor>
    <created>2025-08-28T14:02:23</created>
    <modified>2025-08-28T14:02:23</modified>
    <unit name="meter" meter="1"/>
    <up_axis>Z_UP</up_axis>
  </asset>
  <library_effects>
    <effect id="Material_002-effect">
      <profile_COMMON>
        <newparam sid="tree_texture-surface">
          <surface type="2D">
            <init_from>tree_texture</init_from>
          </surface>
        </newparam>
        <newparam sid="tree_texture-sampler">
          <sampler2D>
            <source>tree_texture-surface</source>
          </sampler2D>
        </newparam>
        <technique sid="common">
          <lambert>
            <emission>
              <color sid="emission">0 0 0 1</color>
            </emission>
            <diffuse>
              <texture texture="tree_texture-sampler" texcoord="UVMap"/>
            </diffuse>
            <index_of_refraction>
              <float sid="ior">1.5</float>
            </index_of_refraction>
          </lambert>
        </technique>
      </profile_COMMON>
    </effect>
  </library_effects>
  <library_images>
    <image id="tree_texture" name="tree_texture">
      <init_from>tree_texture.png</init_from>
    </image>
  </library_images>
  <library_materials>
    <material id="Material_002-material" name="Material.002">
      <instance_effect url="#Material_002-effect"/>
    </material>
  </library_materials>
  <library_geometries>
    <geometry id="shape0_003-mesh" name="shape0.003">
      <mesh>
        <source id="shape0_003-mesh-positions">
          <float_array id="shape0_003-mesh-positions-array" count="156">0 0 7.26609 0.2287 0.2287009 6.61923 -0.228503 -0.551656 5.97348 -0.969458 0 5.32717 -0.685511 0.685509 5.32717 -9.90808e-7 0.969458 5.32717 -0.484729 0 6.29663 1.30653e-6 -1.52597 3.54737 1.07902 1.07902 3.54737 1.52597 -1.35493e-6 3.54737 0.449769 0.449769 5.32717 -0.629035 -0.01703828 5.32712 0.437192 -0.449168 1.6562 1.14079 0 3.54737 -1.52706 0.002806246 3.54748 -1.07902 -1.07902 3.54737 -0.04303532 0.576219 5.45058 0.450343 0.552092 0.001398146 0 -0.63607 5.32717 -1.02095e-6 1.14079 3.54737 -0.592532 -0.27835 2.38589e-4 0.445753 -0.445753 -1.23294e-6 8.91066e-6 2.08638 1.6562 -2.08638 0 1.6562 0.68551 -0.68551 5.32717 0.806664 0.806663 3.54737 -5.11482e-6 1.52597 3.54737 -1.08098 1.07816 3.54744 -0.80666 0.806665 3.54737 -1.47529 1.47529 1.6562 -0.181339 0.664633 1.65618 1.47529 -1.47529 1.6562 -0.806664 -0.806662 3.54737 -1.87318e-7 -0.969458 5.32717 0.969458 3.55849e-7 5.32717 0.852206 -0.283075 5.32717 0.5446571 0.002432942 5.324985 -1.61505e-6 -1.14079 3.54737 -2.38536e-6 -2.08638 1.6562 0.68551 0.68551 5.32717 2.08638 0 1.6562 -0.504673 -0.496844 5.34389 1.47529 1.47529 1.6562 -1.47529 -1.47529 1.6562 0 -0.63039 -1.23328e-6 -0.445388 0.445832 2.82816e-7 -0.633466 -0.06451678 1.65622 0.624032 0.06257969 1.65614 -1.14079 2.22407e-6 3.54737 1.07902 -1.07902 3.54737 2.3064e-7 -0.63039 1.6562 0.806665 -0.80666 3.54737</float_array>
          <technique_common>
            <accessor source="#shape0_003-mesh-positions-array" count="52" stride="3">
              <param name="X" type="float"/>
              <param name="Y" type="float"/>
              <param name="Z" type="float"/>
            </accessor>
          </technique_common>
        </source>
        <source id="shape0_003-mesh-normals">
          <float_array id="shape0_003-mesh-normals-array" count="273">0.3474061 -0.8387182 0.4193575 0 0 -1 -0.6615094 -0.7144468 0.2279718 0.001394927 0.00139594 -0.9999982 -7.20973e-5 7.18434e-5 -1 -0.9787594 0.1988542 -0.04987144 -0.1918154 0.191815 -0.962504 -0.8387177 0.3474072 0.4193579 -1.19976e-4 1.35352e-4 -1 -0.3474061 -0.8387186 0.4193568 -0.2360585 -0.8997545 0.3670401 -0.5107792 -0.859712 0 -1.28964e-6 0 -1 0.8228427 -0.3408374 0.4547085 0.8387156 -0.3474117 0.4193584 -0.8387176 0.3474077 0.4193575 1.09511e-5 -6.1779e-5 -1 3.52901e-5 -1.30109e-4 -1 -1.46133e-4 5.96833e-5 -1 0.838719 0.3474028 0.4193586 0.3474 0.8387201 0.419359 0.9027229 0.1895977 0.3861918 -0.3474096 0.8387168 0.4193577 1.61734e-5 5.34807e-5 -1 -0.1168937 0.9868388 -0.1117365 -0.8358286 0.3467359 0.4256345 0.3826835 -0.9238796 7.30995e-5 -0.6640839 -0.7434108 0.07957953 0.3463809 0.8362313 0.4251325 -0.8387173 0.3474081 0.419358 7.67335e-7 0 -1 0.1911464 0.01543557 -0.9814402 -1.8318e-7 0 -1 -0.3474105 -0.8387153 0.41936 0.8387197 0.3474042 0.4193562 7.67353e-7 0 -1 -2.08644e-6 0 -1 0.8231924 0.340981 0.4539672 0.3474096 -0.8387157 0.4193599 -0.3474048 0.8387196 0.4193561 -0.8387165 -0.3474106 0.4193573 5.27456e-7 -0.7486342 -0.6629834 -0.6636463 0.5500168 0.5070062 -7.67334e-7 0 -1 6.1243e-7 0 -1 -2.83575e-4 1.17509e-4 -1 -5.35595e-4 -2.20244e-4 -0.9999999 -0.34868 0.8417471 0.4121701 -0.3474113 -0.838716 0.4193578 0.3474119 -0.8387156 0.4193581 0.8387175 0.3474089 0.4193567 1.00578e-5 4.16358e-6 -1 0.3222205 0.8509594 0.4147797 2.00782e-6 0 -1 0.3474116 0.8387142 0.4193611 -0.8387178 -0.3474026 0.4193615 0.8387186 -0.3474038 0.4193586 -0.90555 -0.2220779 0.3614704 -0.8480348 0.5258482 0.06573355 -2.0742e-4 4.84835e-5 -1 -0.03311204 0 -0.9994516 -2.83966e-4 -1.18216e-4 -1 0.8387154 0.3474102 0.4193599 -0.8387224 -0.3474006 0.419354 0.347409 -0.8387171 0.4193577 -0.3474044 -0.8387186 0.4193584 0.9943899 -0.004425942 -0.1056848 0.8387198 -0.347404 0.4193562 5.61418e-6 1.33794e-5 -1 -0.3474084 0.8387168 0.4193589 0.9393426 -0.3429551 0.004148364 -4.97472e-7 1.20284e-6 -1 0 0 -1 0.3829202 -0.9237816 0 -0.001922488 -0.03542709 -0.9993704 0.5898758 0.7890697 0.1715098 5.73649e-7 0 -1 -0.8387155 0.3474102 0.4193596 4.65341e-5 1.28541e-4 -1 0.3474044 0.8387196 0.4193563 0.8387154 -0.3474102 0.4193599 -2.8683e-7 0 -1 0.3474085 0.8387178 0.4193564 -1.62142e-5 1.61457e-5 -1 -5.73651e-7 0 -1 -0.7104806 -0.656071 0.2545354 -0.7405195 -0.5608379 0.370259 0.005177736 0.00598222 -0.9999687 0.005132794 -0.002125263 -0.9999846 0.002191185 -0.005291402 -0.9999837 0.6466069 -0.5497595 0.5288327</float_array>
          <technique_common>
            <accessor source="#shape0_003-mesh-normals-array" count="91" stride="3">
              <param name="X" type="float"/>
              <param name="Y" type="float"/>
              <param name="Z" type="float"/>
            </accessor>
          </technique_common>
        </source>
        <source id="shape0_003-mesh-map-0">
          <float_array id="shape0_003-mesh-map-0-array" count="594">0.5981522 0.6631164 0.802345 0.6745667 0.8123624 0.7592772 0.3766252 0.1103119 0.2451987 0.1656466 0.2663148 0 0.2159882 0.5472863 0.2756261 0.4995762 0.2785263 0.566878 0.1015099 0.8587446 0.1015099 0.9562304 0.01404976 0.8695288 0.4570111 0.2754575 0.5570054 0.2406988 0.5714053 0.2754639 0.8922143 0.7688817 0.9244393 0.9078552 0.872438 0.9242706 0.3697896 0.7824832 0.3396984 0.7700191 0.3327283 0.7207877 0.5981522 0.3313118 0.5831742 0.3995537 0.3766252 0.4002707 0.3766252 0.08068138 0.41139 0.1803814 0.3766294 0.1949909 0.2663137 0.3766279 0.3766252 0.1103119 0.3766252 0.2663165 0.2050402 0.5112764 0 0.5061262 0.2159882 0.4404698 0.9636877 0.7755559 0.9244393 0.9632631 0.9244393 0.7614721 0.8123622 0.7614722 0.872438 0.9242706 0.8123622 0.9143115 0.6173225 0.0950818 0.5570068 0.03476572 0.5714076 0 0 0.8357109 0.08848154 0.6587367 0.08068531 0.8587446 0.8685119 0.1834836 0.9680644 0 0.8966665 0.197147 0.8730813 0.6337487 0.8625874 0.7492967 0.8123623 0.7176331 0.1103104 0.3766286 0.1215445 0.1798336 0.1704528 0.2479023 0.2059946 0.1296502 0.2663148 0 0.2451987 0.1656466 0.2460427 0.6587367 0.3185313 0.6587367 0.2572322 0.6900998 0.8370724 0.343466 0.8180626 0.2754639 0.9404539 0.4482516 0.8180626 0.4839926 0.8180626 0.2754639 0.8370724 0.343466 0.7420831 0.2089518 0.7053267 0.01818352 0.7449612 0 0.9338004 0.7614721 0.8625874 0.7492967 0.9338004 0.5498644 0.1103104 0.3766286 0.1704528 0.2479023 0.2452104 0.2118822 0.7707077 0.9896115 0.6874381 0.983668 0.7531234 0.8535139 0.460375 0.5533211 0.4627165 0.7604954 0.3766252 0.7248266 0.229884 1 0.2307844 0.8449274 0.2770201 0.9999995 0.8123622 0.7614722 0.8922143 0.7688817 0.872438 0.9242706 0.7420831 0.2089518 0.6520876 0.2089518 0.6665542 0.004236698 0.8730813 0.6337487 0.9338004 0.5498644 0.8625874 0.7492967 0.3766252 0.08068138 0.4717072 0.034765 0.411391 0.09508162 0.3327283 0.7207877 0.2572322 0.6900998 0.3185313 0.6587367 0.4573073 0 0.5714076 0 0.5570068 0.03476572 0.02002227 0.3766286 0.2159882 0.4404698 0 0.5061262 0.8045725 0.3983908 0.8180625 0.482515 0.5981522 0.3960106 0.5714053 0.2754639 0.5570054 0.2406988 0.6173216 0.1803825 0.3697896 0.7824832 0.3185327 0.8337407 0.3396984 0.7700191 0.8487082 0.1687115 0.7420831 0.2089518 0.7449612 0 0.1103104 0.3766286 0 0.2663167 2.2861e-7 0.1103115 0.5981522 0.6631164 0.8123624 0.7592772 0.6164724 0.8180416 0.2452104 0.2118822 0.3766252 0.1103119 0.2663137 0.3766279 0.5981522 0.4832379 0.3766252 0.4002707 0.5831742 0.3995537 0.2050402 0.5112764 0.02002221 0.6587367 0 0.5061262 0.3697896 0.7824832 0.3327283 0.7207877 0.3185313 0.6587367 0.4627165 0.7604954 0.460375 0.5533211 0.5379521 0.5565468 0.41139 0.1803814 0.3766252 0.08068138 0.411391 0.09508162 0.3185313 0.6587367 0.3697891 0.7099941 0.3697896 0.7824832 0.41139 0.1803814 0.4717056 0.240698 0.4570111 0.2754575 0 0.9403429 0.01404976 0.8695288 0.05804526 0.9744687 0.5379521 0.5565468 0.5766432 0.7604954 0.4627165 0.7604954 0.5206859 0.7604956 0.5853298 0.9519358 0.4894902 0.9519358 0.1615146 0.6691717 0.1947862 0.8587446 0.08068531 0.8587446 0.8750438 0.4792954 0.8370724 0.343466 0.9404539 0.4482516 0.1215445 0.1798336 0.1103115 7.15227e-7 0.2663148 0 0.4573073 0 0.5570068 0.03476572 0.4717072 0.034765 0.7420831 0.2089518 0.6665542 0.004236698 0.7053267 0.01818352 0.5714076 0 0.6520876 0.08068209 0.6173225 0.0950818 0.6228232 0.2754639 0.8180625 0.3324781 0.5981522 0.3960106 0.2050402 0.5112764 0.2159882 0.5947209 0.02002221 0.6587367 0.8685119 0.1834836 0.8487081 0.1738727 0.9680644 0 0.4517011 0.7604956 0.3766252 0.9511775 0.4055069 0.761179 0.6874381 0.983668 0.6874381 0.8180415 0.7531234 0.8535139 0.3766294 0.1949909 0.41139 0.1803814 0.4570111 0.2754575 0.2185809 0.7192595 0.2248772 0.7700191 0.1947863 0.7824832 0.4570111 0.2754575 0.4717056 0.240698 0.5570054 0.2406988 0.1103104 0.3766286 0.2452104 0.2118822 0.2663137 0.3766279 0.6228235 0.5498645 0.5981522 0.3960106 0.8180625 0.482515 0.2452104 0.2118822 0.2451987 0.1656466 0.3766252 0.1103119 0.4517011 0.7604956 0.4894902 0.9511775 0.3766252 0.9511775 0.8966665 0.197147 0.9680644 0 0.9680644 0.2096779 0.2159882 0.5472863 0.3405928 0.3766286 0.2756261 0.4995762 0.5981522 0.9906216 0.6793721 0.8540024 0.687438 0.9930062 0.5981522 0.6631164 0.8123623 0.6126434 0.802345 0.6745667 0.1103115 7.15227e-7 0.1215445 0.1798336 2.2861e-7 0.1103115 0.4040184 0.5533212 0.3766252 0.4002707 0.5981522 0.4832379 0.1947862 0.8337409 0.2307844 0.8449274 0.229884 1 0.1015099 0.9562304 0.05804526 0.9744687 0.01404976 0.8695288 0.6173225 0.0950818 0.6520876 0.08068209 0.6173216 0.1803825 0.2770201 0.8449302 0.2770201 0.9999995 0.2307844 0.8449274 0.2248772 0.7700191 0.2885991 0.8337408 0.1947863 0.7824832 0.2185809 0.7192595 0.2460427 0.6587367 0.2572322 0.6900998 0.2460439 0.8337407 0.1947863 0.7824832 0.2885991 0.8337408 0.6793721 0.8540024 0.5981522 0.9906216 0.5981522 0.8180415 0.6173216 0.1803825 0.6520876 0.08068209 0.6520873 0.1947829 0.5981522 0.3313118 0.3766252 0.4002707 0.4040181 0.2754639 0.2059946 0.1296502 0.1215445 0.1798336 0.2663148 0 0.8180625 0.3324781 0.8045725 0.3983908 0.5981522 0.3960106 0.5981522 0.6631164 0.6164724 0.5498645 0.8123623 0.6126434 0.3766252 0.08068138 0.4573073 0 0.4717072 0.034765 0.8180626 0.4839926 0.8370724 0.343466 0.8750438 0.4792954 0.1103104 0.3766286 2.2861e-7 0.1103115 0.1215445 0.1798336 0.5714053 0.2754639 0.6173216 0.1803825 0.6520873 0.1947829 0.2785263 0.566878 0.2756261 0.4995762 0.3405928 0.5879905 0.2756261 0.4995762 0.3405928 0.3766286 0.3405928 0.5879905 0.3028696 0.7953082 0.3396984 0.7700191 0.3185327 0.8337407 0.3185327 0.8337407 0.2885991 0.8337408 0.3028696 0.7953082 0.2885991 0.8337408 0.2248772 0.7700191 0.3028696 0.7953082 0.08068531 0.8587446 0.08848154 0.6587367 0.1615146 0.6691717</float_array>
          <technique_common>
            <accessor source="#shape0_003-mesh-map-0-array" count="297" stride="2">
              <param name="S" type="float"/>
              <param name="T" type="float"/>
            </accessor>
          </technique_common>
        </source>
        <vertices id="shape0_003-mesh-vertices">
          <input semantic="POSITION" source="#shape0_003-mesh-positions"/>
        </vertices>
        <triangles material="Material_002-material" count="99">
          <input semantic="VERTEX" source="#shape0_003-mesh-vertices" offset="0"/>
          <input semantic="NORMAL" source="#shape0_003-mesh-normals" offset="1"/>
          <input semantic="TEXCOORD" source="#shape0_003-mesh-map-0" offset="2" set="0"/>
          <p>31 0 0 51 0 1 37 0 2 31 1 3 12 1 4 40 1 5 33 2 6 2 2 7 41 2 8 17 3 9 21 3 10 45 3 11 14 4 12 32 4 13 15 4 14 46 5 15 45 5 16 20 5 17 39 6 18 10 6 19 16 6 20 48 7 21 28 7 22 29 7 23 26 8 24 28 8 25 27 8 26 43 1 27 31 1 28 38 1 29 32 9 30 43 9 31 37 9 32 41 10 33 15 10 34 18 10 35 50 11 36 20 11 37 44 11 38 51 12 39 13 12 40 9 12 41 9 13 42 36 13 43 49 13 44 35 14 45 0 14 46 24 14 47 6 15 48 4 15 49 3 15 50 23 16 51 30 16 52 46 16 53 47 17 54 40 17 55 12 17 56 3 18 57 4 18 58 11 18 59 1 19 60 0 19 61 34 19 62 5 20 63 0 20 64 1 20 65 8 21 66 10 21 67 36 21 68 5 22 69 4 22 70 0 22 71 23 23 72 46 23 73 50 23 74 17 24 75 45 24 76 30 24 77 11 25 78 27 25 79 14 25 80 21 26 81 12 26 82 44 26 83 50 27 84 46 27 85 20 27 86 8 28 87 26 28 88 16 28 89 6 29 90 0 29 91 4 29 92 26 30 93 25 30 94 19 30 95 16 31 96 11 31 97 4 31 98 8 32 99 9 32 100 13 32 101 38 33 102 37 33 103 43 33 104 25 34 105 13 34 106 42 34 107 15 35 108 32 35 109 37 35 110 39 36 111 34 36 112 10 36 113 9 37 114 8 37 115 36 37 116 23 1 117 29 1 118 22 1 119 31 38 120 37 38 121 38 38 122 50 1 123 31 1 124 43 1 125 19 39 126 29 39 127 28 39 128 32 40 129 23 40 130 43 40 131 39 41 132 16 41 133 4 41 134 27 42 135 11 42 136 16 42 137 28 43 138 26 43 139 19 43 140 4 44 141 5 44 142 39 44 143 28 45 144 48 45 145 14 45 146 20 46 147 45 46 148 44 46 149 16 47 150 26 47 151 27 47 152 18 48 153 15 48 154 7 48 155 18 49 156 7 49 157 49 49 158 39 50 159 1 50 160 34 50 161 30 51 162 42 51 163 40 51 164 8 1 165 13 1 166 25 1 167 8 52 168 16 52 169 10 52 170 9 53 171 49 53 172 51 53 173 22 54 174 19 54 175 42 54 176 32 55 177 48 55 178 23 55 179 35 56 180 34 56 181 0 56 182 11 57 183 15 57 184 41 57 185 45 58 186 46 58 187 30 58 188 27 59 189 28 59 190 14 59 191 41 60 192 18 60 193 33 60 194 14 61 195 48 61 196 32 61 197 23 1 198 50 1 199 43 1 200 40 62 201 42 62 202 13 62 203 50 1 204 12 1 205 31 1 206 11 63 207 14 63 208 15 63 209 24 64 210 0 64 211 33 64 212 33 65 213 0 65 214 2 65 215 17 66 216 47 66 217 21 66 218 31 67 219 13 67 220 51 67 221 42 68 222 30 68 223 22 68 224 22 69 225 29 69 226 19 69 227 47 70 228 12 70 229 21 70 230 21 71 231 44 71 232 45 71 233 51 72 234 49 72 235 37 72 236 50 73 237 44 73 238 12 73 239 18 1 240 35 1 241 33 1 242 41 74 243 3 74 244 11 74 245 24 1 246 33 1 247 35 1 248 47 75 249 17 75 250 30 75 251 37 76 252 49 76 253 7 76 254 48 77 255 29 77 256 23 77 257 47 78 258 30 78 259 40 78 260 19 79 261 25 79 262 42 79 263 31 80 264 40 80 265 13 80 266 26 81 267 8 81 268 25 81 269 5 82 270 1 82 271 39 82 272 23 83 273 22 83 274 30 83 275 15 84 276 37 84 277 7 84 278 41 85 279 2 85 280 3 85 281 2 86 282 0 86 283 3 86 284 36 87 285 10 87 286 34 87 287 34 88 288 35 88 289 36 88 290 35 89 291 18 89 292 36 89 293 49 90 294 36 90 295 18 90 296</p>
        </triangles>
      </mesh>
    </geometry>
  </library_geometries>
  <library_visual_scenes>
    <visual_scene id="Scene" name="Scene">
      <node id="node" name="node" type="NODE">
        <matrix sid="transform">-1 7.54979e-8 0 0 -7.54979e-8 -1 0 0 0 0 1 0 0 0 0 1</matrix>
        <instance_geometry url="#shape0_003-mesh" name="node">
          <bind_material>
            <technique_common>
              <instance_material symbol="Material_002-material" target="#Material_002-material">
                <bind_vertex_input semantic="UVMap" input_semantic="TEXCOORD" input_set="0"/>
              </instance_material>
            </technique_common>
          </bind_material>
        </instance_geometry>
      </node>
    </visual_scene>
  </library_visual_scenes>
  <scene>
    <instance_visual_scene url="#Scene"/>
  </scene>
</COLLADA>